<svg width="28" height="27" viewBox="0 0 28 27" fill="none" xmlns="http://www.w3.org/2000/svg">
<path d="M2.43604 12.1338H26.7818C27.1046 12.1338 27.4143 12.2679 27.6425 12.5065C27.8708 12.7452 27.9991 13.0688 27.9991 13.4063C27.9991 13.7438 27.8708 14.0675 27.6425 14.3062C27.4143 14.5448 27.1046 14.6789 26.7818 14.6789H2.43604C2.11319 14.6789 1.80357 14.5448 1.57529 14.3062C1.347 14.0675 1.21875 13.7438 1.21875 13.4063C1.21875 13.0688 1.347 12.7452 1.57529 12.5065C1.80357 12.2679 2.11319 12.1338 2.43604 12.1338Z" fill="#4C4D51"/>
<path d="M2.94071 13.4067L13.0369 23.9587C13.2655 24.1976 13.3939 24.5217 13.3939 24.8597C13.3939 25.1976 13.2655 25.5217 13.0369 25.7606C12.8083 25.9996 12.4983 26.1338 12.1751 26.1338C11.8518 26.1338 11.5418 25.9996 11.3132 25.7606L0.357624 14.3077C0.244262 14.1895 0.154322 14.0491 0.0929553 13.8945C0.0315883 13.7399 0 13.5741 0 13.4067C0 13.2394 0.0315883 13.0736 0.0929553 12.919C0.154322 12.7644 0.244262 12.624 0.357624 12.5058L11.3132 1.05288C11.5418 0.813928 11.8518 0.679688 12.1751 0.679688C12.4983 0.679688 12.8083 0.813928 13.0369 1.05288C13.2655 1.29183 13.3939 1.61591 13.3939 1.95384C13.3939 2.29177 13.2655 2.61585 13.0369 2.8548L2.94071 13.4067Z" fill="#4C4D51"/>
</svg>
