<svg xmlns="http://www.w3.org/2000/svg" width="22" height="20" viewBox="0 0 22 20" fill="none">
<path d="M3.72611 4.28L5.93876 17.043C6.03997 17.6273 6.3551 18.1583 6.82801 18.5414C7.30093 18.9245 7.9009 19.1349 8.52106 19.135H12.027M19.0409 4.28L16.8292 17.043C16.728 17.6273 16.4129 18.1583 15.94 18.5414C15.4671 18.9245 14.8671 19.1349 14.2469 19.135H10.741M9.31272 9.183V14.232M13.4553 9.183V14.232M1.69775 4.28H21.0703M14.292 4.28V2.5C14.292 2.10218 14.1265 1.72064 13.8319 1.43934C13.5373 1.15804 13.1378 1 12.7212 1H10.0468C9.63019 1 9.23067 1.15804 8.9361 1.43934C8.64152 1.72064 8.47603 2.10218 8.47603 2.5V4.28H14.292Z" stroke="black" stroke-width="1.5" stroke-linecap="round" stroke-linejoin="round"/>
</svg>