<svg width="34" height="34" viewBox="0 0 34 34" fill="none" xmlns="http://www.w3.org/2000/svg">
<path d="M21.7161 1.06167C22.2074 0.948758 22.7217 0.991614 23.1875 1.18429C23.6533 1.37697 24.0476 1.70991 24.3155 2.13688L26.7281 5.98868C26.9226 6.29891 27.1848 6.56111 27.495 6.75564L31.3468 9.16817C31.7747 9.43595 32.1085 9.83047 32.3016 10.2968C32.4948 10.7632 32.5377 11.2781 32.4245 11.77L31.4051 16.197C31.3229 16.5548 31.3229 16.9266 31.4051 17.2844L32.4245 21.7138C32.5366 22.205 32.4931 22.7189 32.3 23.1843C32.1069 23.6496 31.7738 24.0433 31.3468 24.3108L27.495 26.7258C27.1848 26.9203 26.9226 27.1825 26.7281 27.4927L24.3155 31.3445C24.0479 31.7719 23.6538 32.1054 23.1879 32.2985C22.7221 32.4916 22.2077 32.5348 21.7161 32.4222L17.2867 31.4028C16.9297 31.3209 16.5588 31.3209 16.2018 31.4028L11.7723 32.4222C11.2808 32.5348 10.7663 32.4916 10.3005 32.2985C9.83466 32.1054 9.44054 31.7719 9.1729 31.3445L6.76037 27.4927C6.56515 27.1822 6.3021 26.92 5.99098 26.7258L2.14161 24.3132C1.7142 24.0456 1.38076 23.6515 1.18764 23.1856C0.994518 22.7198 0.951295 22.2054 1.06398 21.7138L2.08093 17.2844C2.16316 16.9266 2.16316 16.5548 2.08093 16.197L1.06155 11.77C0.948554 11.2779 0.99187 10.7627 1.18547 10.2964C1.37906 9.82999 1.7133 9.43562 2.14161 9.16817L5.99098 6.75564C6.3021 6.5614 6.56515 6.29918 6.76037 5.98868L9.1729 2.13688C9.44072 1.71037 9.83459 1.37774 10.2999 1.18508C10.7652 0.992433 11.279 0.949303 11.7699 1.06167L16.2018 2.07863C16.5588 2.16049 16.9297 2.16049 17.2867 2.07863L21.7161 1.06167Z" stroke="#929292" stroke-width="2"/>
<path d="M10.7109 18.0412L15.6501 22.7716L22.7736 10.709" stroke="#929292" stroke-width="2" stroke-linecap="round" stroke-linejoin="round"/>
</svg>
