<svg width="71" height="67" viewBox="0 0 71 67" fill="none" xmlns="http://www.w3.org/2000/svg">
<rect x="1" y="1" width="69" height="65" rx="8" stroke="#929292" stroke-width="2"/>
<path d="M20.5455 39.8333H51.4545V43H20.5455V39.8333ZM22.3227 33.4208L23.6364 31.0775L24.95 33.4208L26.9591 32.2333L25.6455 29.89H28.2727V27.515H25.6455L26.9591 25.1875L24.95 24L23.6364 26.3275L22.3227 24L20.3136 25.1875L21.6273 27.515H19V29.89H21.6273L20.3136 32.2333L22.3227 33.4208ZM32.6773 32.2333L34.6864 33.4208L36 31.0775L37.3136 33.4208L39.3227 32.2333L38.0091 29.89H40.6364V27.515H38.0091L39.3227 25.1875L37.3136 24L36 26.3275L34.6864 24L32.6773 25.1875L33.9909 27.515H31.3636V29.89H33.9909L32.6773 32.2333ZM53 27.515H50.3727L51.6864 25.1875L49.6773 24L48.3636 26.3275L47.05 24L45.0409 25.1875L46.3545 27.515H43.7273V29.89H46.3545L45.0409 32.2333L47.05 33.4208L48.3636 31.0775L49.6773 33.4208L51.6864 32.2333L50.3727 29.89H53V27.515Z" fill="#929292"/>
</svg>
