<svg xmlns="http://www.w3.org/2000/svg" width="71" height="67" viewBox="0 0 71 67" fill="none">
<rect x="1" y="1" width="69" height="65" rx="8" stroke="#929292" stroke-width="2"/>
<path d="M18 23.5C18 22.5717 18.3759 21.6815 19.0451 21.0251C19.7142 20.3687 20.6218 20 21.5681 20H50.1125C51.0589 20 51.9664 20.3687 52.6355 21.0251C53.3047 21.6815 53.6806 22.5717 53.6806 23.5V44.5C53.6806 45.4283 53.3047 46.3185 52.6355 46.9749C51.9664 47.6313 51.0589 48 50.1125 48H21.5681C20.6218 48 19.7142 47.6313 19.0451 46.9749C18.3759 46.3185 18 45.4283 18 44.5V23.5ZM24.278 23.5L35.8403 33.4242L47.4026 23.5H24.278ZM50.1125 25.8257L37.016 37.0678C36.6906 37.3474 36.2728 37.5015 35.8403 37.5015C35.4078 37.5015 34.99 37.3474 34.6646 37.0678L21.5681 25.8257V44.5H50.1125V25.8257Z" fill="#929292"/>
</svg>