<svg width="71" height="67" viewBox="0 0 71 67" fill="none" xmlns="http://www.w3.org/2000/svg">
<rect x="1" y="1" width="69" height="65" rx="8" stroke="#929292" stroke-width="2"/>
<path d="M18 23.5C18 22.5717 18.3687 21.6815 19.0251 21.0251C19.6815 20.3687 20.5717 20 21.5 20H49.5C50.4283 20 51.3185 20.3687 51.9749 21.0251C52.6312 21.6815 53 22.5717 53 23.5V44.5C53 45.4283 52.6312 46.3185 51.9749 46.9749C51.3185 47.6313 50.4283 48 49.5 48H21.5C20.5717 48 19.6815 47.6313 19.0251 46.9749C18.3687 46.3185 18 45.4283 18 44.5V23.5ZM24.1582 23.5L35.5 33.4242L46.8418 23.5H24.1582ZM49.5 25.8257L36.6533 37.0678C36.3341 37.3474 35.9243 37.5015 35.5 37.5015C35.0757 37.5015 34.6659 37.3474 34.3467 37.0678L21.5 25.8257V44.5H49.5V25.8257Z" fill="#929292"/>
</svg>
