<svg xmlns="http://www.w3.org/2000/svg" width="14" height="17" viewBox="0 0 14 17" fill="none">
<path fill-rule="evenodd" clip-rule="evenodd" d="M12.3769 1.68865C8.80334 1.28001 5.19652 1.28001 1.62294 1.68865C1.56816 1.69509 1.51606 1.71648 1.47209 1.7506C1.42812 1.78472 1.39389 1.83031 1.37297 1.88262C1.35204 1.93492 1.3452 1.99203 1.35314 2.04797C1.36109 2.10392 1.38354 2.15665 1.41814 2.20067L4.57732 6.20473C5.70892 7.63893 6.32626 9.42776 6.32623 11.2724V13.9329L7.67362 14.9459V11.2715C7.6738 9.42716 8.29113 7.63869 9.42253 6.20473L12.5817 2.20067C12.6163 2.15665 12.6388 2.10392 12.6467 2.04797C12.6547 1.99203 12.6478 1.93492 12.6269 1.88262C12.606 1.83031 12.5717 1.78472 12.5278 1.7506C12.4838 1.71648 12.4317 1.69509 12.3769 1.68865ZM1.47383 0.315588C5.14676 -0.105196 8.85399 -0.105196 12.5269 0.315588C13.8258 0.464773 14.4519 2.02662 13.63 3.06907L10.4708 7.07314C9.53288 8.26147 9.02111 9.74379 9.02101 11.2724V16.3088C9.0211 16.4365 8.98665 16.5618 8.92147 16.6706C8.85629 16.7795 8.76295 16.8677 8.65182 16.9254C8.54069 16.9832 8.41612 17.0082 8.29195 16.9977C8.16779 16.9872 8.0489 16.9416 7.94849 16.866L5.25371 14.84C5.16844 14.7758 5.09912 14.6919 5.05136 14.5951C5.00361 14.4983 4.97877 14.3913 4.97884 14.2828V11.2715C4.97884 9.74282 4.46683 8.2611 3.52995 7.07222L0.370767 3.06999C-0.45204 2.02754 0.17315 0.464773 1.47383 0.315588Z" fill="#868789"/>
</svg>