<svg width="168" height="35" viewBox="0 0 168 35" fill="none" xmlns="http://www.w3.org/2000/svg">
<path d="M15.9418 0.722683C16.4947 1.23476 16.9159 1.99392 17.0712 2.87618C17.2265 3.75844 17.0913 4.61608 16.7471 5.28527C16.3519 5.98669 15.8295 6.50593 15.0072 6.65051C14.2489 6.7839 13.5019 6.51086 12.9083 5.96118C12.3555 5.4491 11.9343 4.68949 11.779 3.80768C11.6237 2.92408 11.7588 2.06733 12.1031 1.39814C12.4723 0.679264 13.082 0.168082 13.8425 0.033348C14.6393 -0.0942237 15.3573 0.18151 15.9418 0.722683ZM20.9776 32.3524C20.6638 32.3524 20.4091 32.0977 20.4091 31.7839C20.4091 31.4701 20.6638 31.2154 20.9776 31.2154C21.294 31.2154 21.551 31.4661 21.551 31.7839C21.551 32.0986 21.2905 32.3524 20.9776 32.3524ZM15.0171 32.3524C14.7033 32.3524 14.4486 32.0977 14.4486 31.7839C14.4486 31.4661 14.7055 31.2154 15.022 31.2154C15.3358 31.2154 15.5905 31.4701 15.5905 31.7839C15.5905 32.1017 15.3335 32.3524 15.0171 32.3524ZM16.5676 13.6616C16.2538 13.6616 15.9991 13.4069 15.9991 13.0931C15.9991 12.7793 16.2538 12.5246 16.5676 12.5246H17.4315V11.6612C17.4315 11.3474 17.6862 11.0927 18 11.0927C18.3138 11.0927 18.5685 11.3474 18.5685 11.6612V12.5246H19.4319C19.7457 12.5246 20.0004 12.7793 20.0004 13.0931C20.0004 13.4069 19.7457 13.6616 19.4319 13.6616H18.5685V14.5255C18.5685 14.8393 18.3138 15.094 18 15.094C17.6862 15.094 17.4315 14.8393 17.4315 14.5255V13.6616H16.5676ZM16.7928 33.4092L16.5461 30.2387C16.5434 30.1998 16.5354 30.1662 16.5242 30.1416C14.2306 30.1416 11.9365 30.1416 9.64294 30.1416L9.6304 30.2387C9.59325 30.715 9.33811 33.1626 9.38466 33.4262H16.7923L16.7928 33.4092ZM17.6786 30.1546C17.7632 31.2387 17.8657 32.3345 17.9297 33.4186C17.9297 33.7154 17.8151 33.9858 17.6365 34.1881C17.4503 34.3994 17.1894 34.5381 16.9105 34.5596C14.8483 34.3304 11.5086 34.6084 9.26649 34.5596C8.98717 34.5381 8.72666 34.3989 8.54045 34.1881C8.36185 33.9858 8.24726 33.7145 8.24726 33.4186C8.36453 32.3614 8.41467 31.2235 8.49793 30.1546C8.52389 29.8207 8.63042 29.5597 8.79112 29.3695C8.98494 29.1443 9.23113 29.0275 9.50641 29.0078V28.6322C9.50641 28.4192 9.45852 28.2249 9.36855 28.0597C9.27544 27.8919 9.13757 27.7459 8.96121 27.6331L3.69631 24.2738C3.37089 24.0665 3.10052 23.8163 2.88746 23.5258C2.67305 23.2335 2.51549 22.9005 2.41611 22.5294L0.042385 13.6661C-0.0511675 13.2847 0.014185 12.8966 0.198604 12.5779C0.387052 12.2516 0.701281 11.9955 1.09295 11.8904C1.14174 11.8774 1.19098 11.8711 1.23932 11.8711C1.59294 11.8702 1.96446 11.9436 2.26571 12.1361C2.53249 12.2999 2.74601 12.5407 2.87806 12.8729C3.30464 13.9485 3.80194 15.0255 4.35207 16.0604C4.53559 16.4055 4.72404 16.7443 4.91786 17.0756L4.96531 17.0335C5.25402 16.7896 5.64032 16.6803 6.02751 16.7139C6.39456 16.7457 6.77146 16.9064 7.06688 17.2018L7.1676 17.3151C8.8605 19.3334 9.95493 19.6288 11.0964 19.9359C12.8542 20.4086 14.095 21.0746 15.3658 22.4345C16.0493 23.1216 16.3863 24.2867 16.5412 25.6148C16.6661 26.6855 16.6768 27.8834 16.6647 29.0078C16.9499 29.0297 17.1934 29.1689 17.3733 29.3815C17.5452 29.5857 17.6562 29.8609 17.6786 30.1546ZM10.6434 29.0047H15.5323C15.5439 27.9236 15.5327 26.7719 15.4132 25.7437C15.2852 24.6484 15.0381 23.7174 14.569 23.2411C13.1872 21.973 12.6048 21.5169 10.8036 21.0325C9.48448 20.6776 8.2204 20.3365 6.29832 18.0429L6.26296 18.0057C6.16583 17.9086 6.04542 17.8562 5.92993 17.8464C5.83369 17.8383 5.74685 17.8576 5.69314 17.9023L5.68374 17.9099C5.66001 17.9337 5.68374 18.0456 5.72402 18.1772C5.80057 18.4274 5.95858 18.6991 6.07988 18.8871C6.50825 19.5509 6.96304 20.0961 7.47198 20.5818C7.98988 21.076 8.56865 21.5164 9.23516 21.9618C9.49522 22.1355 9.5646 22.4878 9.39093 22.7478C9.21725 23.0079 8.86497 23.0773 8.60491 22.9036C7.88424 22.422 7.25668 21.9443 6.69044 21.4036C6.11659 20.8562 5.60675 20.2456 5.12959 19.5079C4.49531 18.6073 3.89639 17.623 3.34851 16.593C2.78943 15.5411 2.27556 14.4252 1.82526 13.2901C1.79213 13.2059 1.74155 13.145 1.68112 13.1052C1.56205 13.0394 1.46179 13.0175 1.32571 13.0094C1.26349 13.0403 1.21291 13.0886 1.17979 13.1464C1.13905 13.2167 1.12383 13.3048 1.14263 13.3912L3.51278 22.2366C3.57545 22.4712 3.67258 22.6784 3.80239 22.8552C3.93354 23.0338 4.10185 23.1892 4.30507 23.3185L9.56997 26.6779C9.91196 26.8964 10.1801 27.1819 10.3623 27.5141C10.5458 27.852 10.6434 28.2303 10.6434 28.6322V29.0047ZM18.0748 33.3296L18.3214 30.1546C18.3438 29.8609 18.4548 29.5857 18.6267 29.3815C18.8066 29.1689 19.0501 29.0297 19.3353 29.0078C19.3232 27.8834 19.3339 26.6855 19.4588 25.6148C19.6137 24.2867 19.9507 23.1216 20.6342 22.4345C21.905 21.0746 23.1458 20.4086 24.9036 19.9359C26.0451 19.6288 27.1395 19.3334 28.8315 17.3142L28.9331 17.2018C29.2285 16.9064 29.6054 16.7457 29.9725 16.7139C30.3597 16.6803 30.746 16.7896 31.0356 17.0322L31.0821 17.0756C31.276 16.7443 31.4644 16.4055 31.6479 16.0604C32.1981 15.0255 32.6954 13.9485 33.1219 12.8729C33.2612 12.5224 33.4585 12.312 33.7714 12.1124C34.0651 11.9423 34.4066 11.8702 34.7607 11.8702C34.809 11.8711 34.8583 11.8774 34.907 11.8904C35.2987 11.9955 35.6129 12.2516 35.8014 12.5779C35.9858 12.8966 36.0512 13.2847 35.9576 13.6661L33.5839 22.5294C33.4845 22.9005 33.327 23.2335 33.1125 23.5258C32.8995 23.8163 32.6291 24.0665 32.3037 24.2738L27.0388 27.6331C26.8624 27.7459 26.7246 27.8919 26.6323 28.0602C26.5415 28.2249 26.4936 28.4192 26.4936 28.6322V29.0078C26.7689 29.0275 27.0151 29.1443 27.2066 29.3695C27.3696 29.5597 27.4761 29.8207 27.5021 30.1546C27.5835 31.2043 27.7281 32.3815 27.7509 33.4186C27.7527 33.7145 27.6381 33.9858 27.4595 34.1881C27.2733 34.3989 27.0128 34.5381 26.7335 34.5596C24.3817 34.6106 21.4028 34.6867 19.0895 34.5583C18.8106 34.5381 18.5497 34.3994 18.3635 34.1881C18.1849 33.9858 18.0703 33.7154 18.0703 33.4186L18.0748 33.3296ZM20.4677 29.0047H25.3566V28.6322C25.3566 28.2303 25.4542 27.852 25.6377 27.5163C25.8199 27.1819 26.088 26.8964 26.43 26.6779L31.6949 23.3185C31.8981 23.1892 32.0665 23.0338 32.1976 22.8552C32.3274 22.6784 32.4245 22.4712 32.4872 22.2366L34.8574 13.3912C34.8762 13.3048 34.8609 13.2167 34.8202 13.1464C34.7871 13.0886 34.7365 13.0403 34.6743 13.0094C34.5418 13.0175 34.4259 13.0439 34.3399 13.0936C34.2602 13.1379 34.2079 13.2055 34.1747 13.2901C33.7244 14.4252 33.2106 15.5411 32.6515 16.593C32.1036 17.623 31.5047 18.6073 30.8704 19.5079C30.3932 20.2456 29.8834 20.8562 29.3096 21.4036C28.7433 21.9443 28.1158 22.422 27.3951 22.9036C27.135 23.0773 26.7827 23.0079 26.6091 22.7478C26.4354 22.4878 26.5048 22.1355 26.7648 21.9618C27.4314 21.5164 28.0101 21.076 28.528 20.5818C29.037 20.0961 29.4917 19.5509 29.9201 18.8871C30.0414 18.6991 30.1994 18.4274 30.276 18.1772C30.3163 18.0456 30.34 17.9337 30.3163 17.9099L30.3078 17.9014C30.2531 17.8576 30.1663 17.8383 30.0701 17.8464C29.9546 17.8562 29.8342 17.9086 29.737 18.0057L29.7017 18.0406C27.7796 20.3365 26.5155 20.6776 25.1964 21.0325C24.153 21.3132 23.0688 21.6059 21.4637 23.2111C20.8818 23.7451 20.6741 24.9962 20.5868 25.7437C20.4673 26.7719 20.4561 27.9236 20.4677 29.0047ZM19.4539 30.2387C19.3903 31.0556 19.1652 32.7011 19.2077 33.4262H26.6153C26.6579 32.7011 26.4332 31.0556 26.3696 30.2387L26.3571 30.1416C24.0635 30.1416 21.7694 30.1416 19.4758 30.1416C19.4646 30.1662 19.4566 30.1998 19.4539 30.2387ZM14.7418 18.5254C13.8716 18.3495 13.1084 17.8746 12.5677 17.2143C12.0355 16.5644 11.7145 15.7332 11.7145 14.8326C11.7145 14.1258 11.9146 13.4593 12.2606 12.889C12.6169 12.3008 13.1294 11.8169 13.7373 11.4969C13.8183 11.4544 13.8828 11.3989 13.9271 11.3358C13.9719 11.2717 14.0019 11.1925 14.0139 11.1021C14.15 10.1035 14.6339 9.22612 15.3483 8.60303C16.0488 7.99114 16.9696 7.62409 18 7.62409C19.0228 7.62409 19.9377 7.99382 20.6369 8.60527C21.3527 9.23059 21.8397 10.1097 21.982 11.1025C21.9946 11.1912 22.0254 11.2704 22.0707 11.3349C22.1159 11.3984 22.1799 11.4535 22.2591 11.4951C22.8911 11.855 23.3571 12.2596 23.7385 12.8872C24.0854 13.4584 24.2859 14.1253 24.2859 14.8326C24.2859 15.7341 23.965 16.5648 23.4323 17.2148C22.892 17.8741 22.1284 18.3495 21.2582 18.5254C20.9964 18.5778 20.7399 18.5711 20.4986 18.5062C20.2565 18.4408 20.0291 18.3177 19.829 18.1405C19.5792 17.9189 19.29 17.7448 18.9794 17.6271C18.6719 17.5107 18.3402 17.4485 18.0004 17.4485C17.6603 17.4485 17.3286 17.5107 17.0211 17.6271C16.7104 17.7448 16.4212 17.9184 16.171 18.1405C15.9709 18.3177 15.7444 18.4408 15.5014 18.5062C15.261 18.5711 15.0036 18.5778 14.7418 18.5254ZM13.4468 16.4946C13.8277 16.9596 14.3609 17.2936 14.9638 17.4153C15.0488 17.4323 15.1321 17.4301 15.2086 17.4095C15.2834 17.3894 15.3559 17.3495 15.4208 17.2918C15.7758 16.9771 16.1836 16.7309 16.6218 16.5653C17.0582 16.3997 17.5255 16.3115 18.0004 16.3115C18.4749 16.3115 18.9422 16.3997 19.3787 16.5653C19.8169 16.7309 20.2247 16.9776 20.5792 17.2918C20.6441 17.3495 20.7166 17.3894 20.7914 17.4095C20.8679 17.4301 20.9516 17.4323 21.0362 17.4153C21.6392 17.2936 22.1727 16.9596 22.5532 16.495C22.9247 16.0411 23.149 15.4615 23.149 14.8326C23.149 14.3344 23.0102 13.8684 22.7707 13.4736C22.5259 13.0712 22.1758 12.7368 21.7591 12.5125C21.5147 12.3926 21.2994 12.21 21.1423 11.9875C20.9941 11.7771 20.8965 11.5318 20.8585 11.2628C20.7551 10.543 20.4051 9.9074 19.8912 9.45843C19.3943 9.02424 18.7386 8.76104 18 8.76104C17.2552 8.76104 16.5936 9.0229 16.094 9.45798C15.582 9.90337 15.2355 10.5336 15.1375 11.2534C15.1008 11.5238 15.0045 11.7713 14.8555 11.9839C14.706 12.1974 14.5063 12.3738 14.2655 12.5005C13.8371 12.7261 13.4768 13.0654 13.2284 13.4754C12.9898 13.8688 12.8515 14.3344 12.8515 14.8326C12.8515 15.4615 13.0757 16.0416 13.4468 16.4946ZM28.0509 6.5216C27.7062 6.32286 27.2707 6.33405 26.8463 6.5122C26.3714 6.71184 25.9153 7.11559 25.593 7.67377C25.2711 8.23151 25.1503 8.82684 25.2138 9.33847C25.2702 9.77982 25.4676 10.1522 25.7931 10.3568C26.1955 10.5846 26.6077 10.5618 27.0276 10.3859C27.5025 10.1858 27.9586 9.78296 28.2809 9.22478C28.5692 8.75254 28.7294 8.1111 28.6596 7.55918C28.6113 7.14961 28.4197 6.73422 28.0509 6.5216ZM26.4067 5.46835C27.1511 5.15546 27.947 5.15546 28.6149 5.54042C29.2778 5.92268 29.6748 6.60441 29.78 7.39625C29.8995 8.18227 29.6677 9.07438 29.2809 9.75834C28.8982 10.4696 28.2138 11.1155 27.4672 11.4298C26.7317 11.7391 25.9448 11.7431 25.2814 11.3707C24.5836 10.9902 24.1879 10.2503 24.0908 9.48081C23.9977 8.73508 24.1619 7.88773 24.6078 7.11246C25.0044 6.4079 25.6574 5.78347 26.4067 5.46835ZM7.38514 5.54042C8.05299 5.15546 8.84886 5.15546 9.59325 5.46835C10.2866 5.7602 10.9401 6.32957 11.3882 7.1053C11.7924 7.85416 12.0171 8.62317 11.9088 9.48081C11.7888 10.2682 11.4527 10.9459 10.7418 11.3563C10.074 11.7431 9.27723 11.7426 8.53284 11.4298C7.78621 11.1155 7.1018 10.4696 6.71908 9.75834C6.33234 9.07438 6.10047 8.18227 6.21999 7.39625C6.32518 6.60441 6.72222 5.92268 7.38514 5.54042ZM9.15369 6.5122C8.72934 6.33405 8.29381 6.32286 7.94914 6.5216C7.5803 6.73422 7.38872 7.14961 7.34038 7.55918C7.27055 8.1111 7.4308 8.75254 7.71907 9.22478C8.04135 9.78296 8.49748 10.1858 8.9724 10.3859C9.38421 10.5587 9.80721 10.5735 10.1461 10.3913C10.5391 10.1719 10.7342 9.77311 10.7853 9.33847C10.8484 8.83535 10.7329 8.24986 10.4236 7.70063C10.1022 7.1796 9.73067 6.75526 9.15369 6.5122ZM20.8263 1.55347C20.4498 1.90216 20.1598 2.43617 20.0479 3.07134C19.936 3.70696 20.0255 4.30857 20.2596 4.76648C20.4704 5.17471 20.7967 5.46253 21.1875 5.53146C21.6486 5.61248 22.016 5.39673 22.3491 5.10578C22.7667 4.70605 23.0089 4.15145 23.106 3.58835C23.2112 2.96168 23.1212 2.36903 22.8889 1.91738C22.6826 1.51542 22.3638 1.23073 21.982 1.15598C21.5416 1.07854 21.1459 1.25759 20.8263 1.55347ZM20.0582 0.722683C20.649 0.175691 21.3916 -0.0973569 22.1463 0.0315576C22.9265 0.156444 23.5442 0.711045 23.8969 1.39814C24.2846 2.15283 24.3517 2.98003 24.221 3.80768C24.0688 4.67114 23.6619 5.41732 23.1252 5.92895C22.5805 6.48131 21.7645 6.78659 20.9923 6.65051C20.2323 6.51667 19.6217 6.00415 19.2524 5.28527C18.9091 4.6134 18.7735 3.75755 18.9288 2.87618C19.0841 1.99392 19.5053 1.23476 20.0582 0.722683ZM15.1737 1.55347C14.8429 1.24729 14.4459 1.08884 14.0587 1.14882C13.6196 1.22626 13.3098 1.53108 13.1111 1.91738C12.8792 2.36813 12.7888 2.95944 12.8931 3.58432C12.9956 4.16264 13.24 4.72575 13.6764 5.1304C14.013 5.44239 14.419 5.6004 14.8121 5.53146C15.2257 5.4585 15.5609 5.13443 15.7391 4.76603C15.9741 4.30857 16.064 3.70696 15.9521 3.07134C15.8402 2.43617 15.5502 1.90216 15.1737 1.55347Z" fill="white"/>
<path d="M61.86 14.4545C61.86 15.6145 61.46 16.5811 60.66 17.3545C59.8733 18.1145 58.6667 18.4945 57.04 18.4945H54.36V24.3145H52.54V10.3745H57.04C58.6133 10.3745 59.8067 10.7545 60.62 11.5145C61.4467 12.2745 61.86 13.2545 61.86 14.4545ZM57.04 16.9945C58.0533 16.9945 58.8 16.7745 59.28 16.3345C59.76 15.8945 60 15.2678 60 14.4545C60 12.7345 59.0133 11.8745 57.04 11.8745H54.36V16.9945H57.04ZM74.122 18.4145C74.122 18.7611 74.102 19.1278 74.062 19.5145H65.302C65.3687 20.5945 65.7354 21.4411 66.402 22.0545C67.082 22.6545 67.902 22.9545 68.862 22.9545C69.6487 22.9545 70.302 22.7745 70.822 22.4145C71.3554 22.0411 71.7287 21.5478 71.942 20.9345H73.902C73.6087 21.9878 73.022 22.8478 72.142 23.5145C71.262 24.1678 70.1687 24.4945 68.862 24.4945C67.822 24.4945 66.8887 24.2611 66.062 23.7945C65.2487 23.3278 64.6087 22.6678 64.142 21.8145C63.6754 20.9478 63.442 19.9478 63.442 18.8145C63.442 17.6811 63.6687 16.6878 64.122 15.8345C64.5754 14.9811 65.2087 14.3278 66.022 13.8745C66.8487 13.4078 67.7954 13.1745 68.862 13.1745C69.902 13.1745 70.822 13.4011 71.622 13.8545C72.422 14.3078 73.0354 14.9345 73.462 15.7345C73.902 16.5211 74.122 17.4145 74.122 18.4145ZM72.242 18.0345C72.242 17.3411 72.0887 16.7478 71.782 16.2545C71.4754 15.7478 71.0554 15.3678 70.522 15.1145C70.002 14.8478 69.422 14.7145 68.782 14.7145C67.862 14.7145 67.0754 15.0078 66.422 15.5945C65.782 16.1811 65.4154 16.9945 65.322 18.0345H72.242ZM78.7444 14.8545V21.3145C78.7444 21.8478 78.8577 22.2278 79.0844 22.4545C79.311 22.6678 79.7044 22.7745 80.2644 22.7745H81.6044V24.3145H79.9644C78.951 24.3145 78.191 24.0811 77.6844 23.6145C77.1777 23.1478 76.9244 22.3811 76.9244 21.3145V14.8545H75.5044V13.3545H76.9244V10.5945H78.7444V13.3545H81.6044V14.8545H78.7444ZM98.4616 14.4545C98.4616 15.6145 98.0616 16.5811 97.2616 17.3545C96.4749 18.1145 95.2682 18.4945 93.6416 18.4945H90.9616V24.3145H89.1416V10.3745H93.6416C95.2149 10.3745 96.4082 10.7545 97.2216 11.5145C98.0482 12.2745 98.4616 13.2545 98.4616 14.4545ZM93.6416 16.9945C94.6549 16.9945 95.4016 16.7745 95.8816 16.3345C96.3616 15.8945 96.6016 15.2678 96.6016 14.4545C96.6016 12.7345 95.6149 11.8745 93.6416 11.8745H90.9616V16.9945H93.6416ZM100.044 18.7945C100.044 17.6745 100.27 16.6945 100.724 15.8545C101.177 15.0011 101.797 14.3411 102.584 13.8745C103.384 13.4078 104.27 13.1745 105.244 13.1745C106.204 13.1745 107.037 13.3811 107.744 13.7945C108.45 14.2078 108.977 14.7278 109.324 15.3545V13.3545H111.164V24.3145H109.324V22.2745C108.964 22.9145 108.424 23.4478 107.704 23.8745C106.997 24.2878 106.17 24.4945 105.224 24.4945C104.25 24.4945 103.37 24.2545 102.584 23.7745C101.797 23.2945 101.177 22.6211 100.724 21.7545C100.27 20.8878 100.044 19.9011 100.044 18.7945ZM109.324 18.8145C109.324 17.9878 109.157 17.2678 108.824 16.6545C108.49 16.0411 108.037 15.5745 107.464 15.2545C106.904 14.9211 106.284 14.7545 105.604 14.7545C104.924 14.7545 104.304 14.9145 103.744 15.2345C103.184 15.5545 102.737 16.0211 102.404 16.6345C102.07 17.2478 101.904 17.9678 101.904 18.7945C101.904 19.6345 102.07 20.3678 102.404 20.9945C102.737 21.6078 103.184 22.0811 103.744 22.4145C104.304 22.7345 104.924 22.8945 105.604 22.8945C106.284 22.8945 106.904 22.7345 107.464 22.4145C108.037 22.0811 108.49 21.6078 108.824 20.9945C109.157 20.3678 109.324 19.6411 109.324 18.8145ZM116.459 14.8545V21.3145C116.459 21.8478 116.573 22.2278 116.799 22.4545C117.026 22.6678 117.419 22.7745 117.979 22.7745H119.319V24.3145H117.679C116.666 24.3145 115.906 24.0811 115.399 23.6145C114.893 23.1478 114.639 22.3811 114.639 21.3145V14.8545H113.219V13.3545H114.639V10.5945H116.459V13.3545H119.319V14.8545H116.459ZM122.464 11.5745C122.118 11.5745 121.824 11.4545 121.584 11.2145C121.344 10.9745 121.224 10.6811 121.224 10.3345C121.224 9.98779 121.344 9.69445 121.584 9.45445C121.824 9.21445 122.118 9.09445 122.464 9.09445C122.798 9.09445 123.078 9.21445 123.304 9.45445C123.544 9.69445 123.664 9.98779 123.664 10.3345C123.664 10.6811 123.544 10.9745 123.304 11.2145C123.078 11.4545 122.798 11.5745 122.464 11.5745ZM123.344 13.3545V24.3145H121.524V13.3545H123.344ZM136.446 18.4145C136.446 18.7611 136.426 19.1278 136.386 19.5145H127.626C127.693 20.5945 128.06 21.4411 128.726 22.0545C129.406 22.6545 130.226 22.9545 131.186 22.9545C131.973 22.9545 132.626 22.7745 133.146 22.4145C133.68 22.0411 134.053 21.5478 134.266 20.9345H136.226C135.933 21.9878 135.346 22.8478 134.466 23.5145C133.586 24.1678 132.493 24.4945 131.186 24.4945C130.146 24.4945 129.213 24.2611 128.386 23.7945C127.573 23.3278 126.933 22.6678 126.466 21.8145C126 20.9478 125.766 19.9478 125.766 18.8145C125.766 17.6811 125.993 16.6878 126.446 15.8345C126.9 14.9811 127.533 14.3278 128.346 13.8745C129.173 13.4078 130.12 13.1745 131.186 13.1745C132.226 13.1745 133.146 13.4011 133.946 13.8545C134.746 14.3078 135.36 14.9345 135.786 15.7345C136.226 16.5211 136.446 17.4145 136.446 18.4145ZM134.566 18.0345C134.566 17.3411 134.413 16.7478 134.106 16.2545C133.8 15.7478 133.38 15.3678 132.846 15.1145C132.326 14.8478 131.746 14.7145 131.106 14.7145C130.186 14.7145 129.4 15.0078 128.746 15.5945C128.106 16.1811 127.74 16.9945 127.646 18.0345H134.566ZM144.189 13.1545C145.522 13.1545 146.602 13.5611 147.429 14.3745C148.255 15.1745 148.669 16.3345 148.669 17.8545V24.3145H146.869V18.1145C146.869 17.0211 146.595 16.1878 146.049 15.6145C145.502 15.0278 144.755 14.7345 143.809 14.7345C142.849 14.7345 142.082 15.0345 141.509 15.6345C140.949 16.2345 140.669 17.1078 140.669 18.2545V24.3145H138.849V13.3545H140.669V14.9145C141.029 14.3545 141.515 13.9211 142.129 13.6145C142.755 13.3078 143.442 13.1545 144.189 13.1545ZM153.862 14.8545V21.3145C153.862 21.8478 153.975 22.2278 154.202 22.4545C154.428 22.6678 154.822 22.7745 155.382 22.7745H156.722V24.3145H155.082C154.068 24.3145 153.308 24.0811 152.802 23.6145C152.295 23.1478 152.042 22.3811 152.042 21.3145V14.8545H150.622V13.3545H152.042V10.5945H153.862V13.3545H156.722V14.8545H153.862ZM162.807 24.4945C161.967 24.4945 161.213 24.3545 160.547 24.0745C159.88 23.7811 159.353 23.3811 158.967 22.8745C158.58 22.3545 158.367 21.7611 158.327 21.0945H160.207C160.26 21.6411 160.513 22.0878 160.967 22.4345C161.433 22.7811 162.04 22.9545 162.787 22.9545C163.48 22.9545 164.027 22.8011 164.427 22.4945C164.827 22.1878 165.027 21.8011 165.027 21.3345C165.027 20.8545 164.813 20.5011 164.387 20.2745C163.96 20.0345 163.3 19.8011 162.407 19.5745C161.593 19.3611 160.927 19.1478 160.407 18.9345C159.9 18.7078 159.46 18.3811 159.087 17.9545C158.727 17.5145 158.547 16.9411 158.547 16.2345C158.547 15.6745 158.713 15.1611 159.047 14.6945C159.38 14.2278 159.853 13.8611 160.467 13.5945C161.08 13.3145 161.78 13.1745 162.567 13.1745C163.78 13.1745 164.76 13.4811 165.507 14.0945C166.253 14.7078 166.653 15.5478 166.707 16.6145H164.887C164.847 16.0411 164.613 15.5811 164.187 15.2345C163.773 14.8878 163.213 14.7145 162.507 14.7145C161.853 14.7145 161.333 14.8545 160.947 15.1345C160.56 15.4145 160.367 15.7811 160.367 16.2345C160.367 16.5945 160.48 16.8945 160.707 17.1345C160.947 17.3611 161.24 17.5478 161.587 17.6945C161.947 17.8278 162.44 17.9811 163.067 18.1545C163.853 18.3678 164.493 18.5811 164.987 18.7945C165.48 18.9945 165.9 19.3011 166.247 19.7145C166.607 20.1278 166.793 20.6678 166.807 21.3345C166.807 21.9345 166.64 22.4745 166.307 22.9545C165.973 23.4345 165.5 23.8145 164.887 24.0945C164.287 24.3611 163.593 24.4945 162.807 24.4945Z" fill="black"/>
</svg>
