<svg width="33" height="32" viewBox="0 0 33 32" fill="none" xmlns="http://www.w3.org/2000/svg">
<path d="M22.2089 17.4519C22.2561 17.4649 22.3049 17.4715 22.354 17.4714C22.3972 17.4715 22.4403 17.4664 22.4823 17.4564C25.9897 16.6162 32.9988 10.771 32.9988 5.29995C33.0247 4.09702 32.6112 2.92369 31.8308 1.98571C31.0504 1.04774 29.953 0.404987 28.731 0.170185C26.6571 -0.308861 23.9153 0.177236 22.354 2.24886C20.7926 0.176732 18.0508 -0.309601 15.9769 0.170205C14.7549 0.405007 13.6575 1.04775 12.8771 1.98573C12.0968 2.9237 11.6833 4.09703 11.7092 5.29995C11.7092 8.53098 14.2773 11.5893 15.808 13.1249C17.8871 15.2101 20.5192 16.9896 22.2089 17.4519ZM23.3077 16.0787V11.8094L24.1118 9.88362C24.1372 9.8225 24.1503 9.75726 24.1503 9.6914V8.0765C24.1503 7.98558 24.1253 7.89629 24.0779 7.81773C24.0305 7.73917 23.9624 7.67415 23.8805 7.6293L22.7282 6.99866L23.024 5.24173L24.5464 4.75563H28.167L29.6884 5.24148L29.9857 6.99866L28.8334 7.6293C28.7515 7.67415 28.6834 7.73917 28.636 7.81773C28.5886 7.89629 28.5636 7.98558 28.5636 8.0765V9.69138C28.5637 9.79345 28.5952 9.89319 28.6541 9.97797L29.4434 11.1123C27.8051 13.1868 25.7092 14.8833 23.3077 16.0787ZM14.6588 5.65455V9.13102L14.3073 9.63582C13.3887 8.35629 12.8576 6.85481 12.7736 5.29995C12.755 4.32986 13.0906 3.38439 13.7216 2.62927C14.3525 1.87415 15.2385 1.35755 16.2244 1.17001C16.6439 1.07433 17.0735 1.02632 17.5045 1.02696C18.3973 0.995367 19.2812 1.20729 20.0549 1.63844C20.8287 2.0696 21.461 2.70254 21.8794 3.46473C21.9287 3.54374 21.9983 3.60911 22.0814 3.65448C22.1646 3.69986 22.2584 3.72371 22.354 3.72371C22.4495 3.72371 22.5434 3.69986 22.6265 3.65448C22.7096 3.60911 22.7792 3.54374 22.8285 3.46473C23.9865 1.2591 26.5713 0.729083 28.4835 1.17001C29.4694 1.35755 30.3554 1.87415 30.9863 2.62927C31.6173 3.38439 31.9529 4.32986 31.9343 5.29995C31.9343 6.93064 31.2023 8.64136 30.1069 10.223L29.6281 9.53479V8.37589L30.8329 7.71638C30.9275 7.66456 31.0035 7.58598 31.0505 7.49123C31.0975 7.39647 31.1134 7.29008 31.0959 7.18637L30.7196 4.96442C30.6843 4.80815 30.6074 4.66344 30.4966 4.54455C30.3858 4.42565 30.2448 4.33667 30.0876 4.28635L28.4196 3.75382C28.3658 3.73651 28.3095 3.72769 28.2528 3.72773H24.4606C24.4037 3.72773 24.3472 3.73655 24.2932 3.75382L22.6263 4.28609C22.4652 4.3387 22.3213 4.43153 22.2093 4.55515C22.0973 4.67877 22.0211 4.8288 21.9886 4.99002L21.618 7.18662C21.6005 7.29029 21.6163 7.39665 21.6633 7.49137C21.7104 7.58609 21.7863 7.66462 21.881 7.71638L23.0858 8.37589V9.59176L22.2817 11.5176C22.2563 11.5787 22.2432 11.6439 22.2432 11.7098V16.3814C21.8841 16.2539 21.5355 16.1001 21.2006 15.9214V12.5171C21.2008 12.4368 21.1812 12.3576 21.1434 12.286L20.422 10.9023L21.054 9.69041C21.16 9.29541 21.2093 8.88825 21.2006 8.48031V5.6546C21.2006 5.56172 21.1746 5.47057 21.1252 5.39084C21.0759 5.31111 21.0051 5.24579 20.9203 5.20182C20.8356 5.15785 20.7401 5.13688 20.6441 5.14113C20.548 5.14538 20.4549 5.17469 20.3747 5.22596L19.2442 5.94795H16.6152L15.4847 5.22596C15.4045 5.17469 15.3114 5.14538 15.2154 5.14113C15.1193 5.13688 15.0238 5.15785 14.9391 5.20182C14.8543 5.24579 14.7835 5.31111 14.7342 5.39084C14.6849 5.47057 14.6588 5.56167 14.6588 5.65455ZM15.6329 9.57446C15.6917 9.48959 15.7232 9.38977 15.7233 9.28762V6.6107L16.1615 6.89051C16.2486 6.94617 16.3507 6.97584 16.4551 6.97583H19.4043C19.5087 6.97584 19.6109 6.94617 19.6979 6.89051L20.1361 6.6107V8.4803C20.1361 8.62335 20.1101 9.11271 20.0821 9.2688L19.3508 10.6709C19.3132 10.7426 19.2936 10.8218 19.2936 10.9021C19.2936 10.9825 19.3132 11.0617 19.3508 11.1334L20.1361 12.6393V15.2982C18.1498 14.0015 16.399 12.3967 14.9548 10.5486L15.6329 9.57446Z" fill="black"/>
<path d="M4.25781 17.9855V20.0413C4.25779 20.1088 4.27155 20.1756 4.29829 20.238C4.32503 20.3004 4.36423 20.357 4.41366 20.4048C4.46309 20.4525 4.52177 20.4904 4.58635 20.5162C4.65093 20.542 4.72015 20.5553 4.79005 20.5553H5.85453V21.5832C5.85451 21.6507 5.86827 21.7175 5.89501 21.7799C5.92175 21.8422 5.96095 21.8989 6.01038 21.9466C6.05981 21.9944 6.11849 22.0322 6.18307 22.058C6.24765 22.0839 6.31687 22.0971 6.38677 22.0971H8.51573C8.58563 22.0971 8.65485 22.0839 8.71943 22.058C8.78402 22.0322 8.8427 21.9944 8.89212 21.9466C8.94155 21.8989 8.98075 21.8422 9.00749 21.7799C9.03424 21.7175 9.04799 21.6507 9.04797 21.5832V20.5553H10.1125C10.1824 20.5553 10.2516 20.542 10.3162 20.5162C10.3807 20.4904 10.4394 20.4525 10.4888 20.4048C10.5383 20.357 10.5775 20.3004 10.6042 20.238C10.631 20.1756 10.6447 20.1088 10.6447 20.0413V17.9855C10.6447 17.918 10.631 17.8512 10.6042 17.7888C10.5775 17.7264 10.5383 17.6698 10.4888 17.622C10.4394 17.5743 10.3807 17.5365 10.3162 17.5106C10.2516 17.4848 10.1824 17.4715 10.1125 17.4715H9.04797V16.4436C9.04799 16.3761 9.03424 16.3093 9.00749 16.2469C8.98075 16.1846 8.94155 16.1279 8.89212 16.0802C8.8427 16.0325 8.78402 15.9946 8.71943 15.9688C8.65485 15.943 8.58563 15.9297 8.51573 15.9297H6.38677C6.31687 15.9297 6.24765 15.943 6.18307 15.9688C6.11849 15.9946 6.05981 16.0325 6.01038 16.0802C5.96095 16.1279 5.92175 16.1846 5.89501 16.2469C5.86827 16.3093 5.85451 16.3761 5.85453 16.4436V17.4715H4.79005C4.72015 17.4715 4.65093 17.4848 4.58635 17.5106C4.52177 17.5365 4.46309 17.5743 4.41366 17.622C4.36423 17.6698 4.32503 17.7264 4.29829 17.7888C4.27155 17.8512 4.25779 17.918 4.25781 17.9855ZM5.32229 18.4995H6.38677C6.45667 18.4995 6.52589 18.4862 6.59047 18.4604C6.65506 18.4345 6.71374 18.3967 6.76316 18.349C6.81259 18.3012 6.85179 18.2446 6.87854 18.1822C6.90528 18.1198 6.91903 18.053 6.91901 17.9855V16.9576H7.98349V17.9855C7.98347 18.053 7.99723 18.1198 8.02397 18.1822C8.05071 18.2446 8.08991 18.3012 8.13934 18.349C8.18877 18.3967 8.24745 18.4345 8.31203 18.4604C8.37661 18.4862 8.44583 18.4995 8.51573 18.4995H9.58021V19.5274H8.51573C8.44583 19.5273 8.37661 19.5406 8.31203 19.5664C8.24745 19.5923 8.18877 19.6301 8.13934 19.6779C8.08991 19.7256 8.05071 19.7822 8.02397 19.8446C7.99723 19.907 7.98347 19.9738 7.98349 20.0413V21.0692H6.91901V20.0413C6.91903 19.9738 6.90528 19.907 6.87854 19.8446C6.85179 19.7822 6.81259 19.7256 6.76316 19.6779C6.71374 19.6301 6.65506 19.5923 6.59047 19.5664C6.52589 19.5406 6.45667 19.5273 6.38677 19.5274H5.32229V18.4995Z" fill="black"/>
<path d="M5.85464 25.1811H6.91912V28.2649C6.92027 29.2187 7.31317 30.1331 8.01162 30.8076C8.71007 31.482 9.65704 31.8614 10.6448 31.8625H19.1606C20.1484 31.8614 21.0954 31.482 21.7938 30.8076C22.4923 30.1331 22.8852 29.2187 22.8863 28.2649V22.0244C23.388 21.8993 23.8253 21.6018 24.1161 21.1877C24.4069 20.7736 24.5314 20.2712 24.4661 19.7749C24.4008 19.2785 24.1502 18.8221 23.7614 18.4914C23.3726 18.1606 22.8723 17.9781 22.3541 17.9781C21.8359 17.9781 21.3355 18.1606 20.9467 18.4914C20.5579 18.8221 20.3074 19.2785 20.2421 19.7749C20.1768 20.2712 20.3012 20.7736 20.592 21.1877C20.8829 21.6018 21.3201 21.8993 21.8218 22.0244V28.2649C21.821 28.9462 21.5404 29.5993 21.0415 30.0811C20.5426 30.5628 19.8662 30.8338 19.1606 30.8346H10.6448C9.93926 30.8338 9.26285 30.5628 8.76396 30.0811C8.26507 29.5993 7.98443 28.9462 7.9836 28.2649V25.1811H9.04808C10.6003 25.1794 12.0884 24.5833 13.186 23.5234C14.2836 22.4635 14.901 21.0265 14.9027 19.5277V14.3881C14.9023 13.9793 14.7339 13.5874 14.4345 13.2984C14.1352 13.0093 13.7293 12.8467 13.306 12.8463H12.7738V12.3323C12.7738 12.2648 12.76 12.198 12.7333 12.1356C12.7065 12.0732 12.6673 12.0166 12.6179 11.9689C12.5685 11.9211 12.5098 11.8833 12.4452 11.8574C12.3806 11.8316 12.3114 11.8183 12.2415 11.8184H11.177C10.7536 11.8184 10.3474 11.9808 10.048 12.27C9.74854 12.5591 9.58032 12.9513 9.58032 13.3602C9.58032 13.7691 9.74854 14.1613 10.048 14.4505C10.3474 14.7396 10.7536 14.9021 11.177 14.9021H12.2415C12.3114 14.9021 12.3806 14.8888 12.4452 14.863C12.5098 14.8372 12.5685 14.7993 12.6179 14.7516C12.6673 14.7039 12.7065 14.6472 12.7333 14.5848C12.76 14.5225 12.7738 14.4556 12.7738 14.3881V13.8742H13.306C13.4471 13.8743 13.5824 13.9285 13.6822 14.0249C13.782 14.1212 13.8381 14.2519 13.8382 14.3881V19.5277C13.8368 20.754 13.3317 21.9297 12.4337 22.7969C11.5356 23.6641 10.3181 24.1518 9.04808 24.1532H5.85464C4.58465 24.1518 3.36709 23.6641 2.46907 22.7969C1.57105 21.9297 1.06591 20.754 1.06448 19.5277V14.3881C1.06462 14.2519 1.12074 14.1212 1.22053 14.0249C1.32031 13.9285 1.4556 13.8743 1.59672 13.8742H2.12896V14.3881C2.12894 14.4556 2.1427 14.5225 2.16944 14.5848C2.19618 14.6472 2.23538 14.7039 2.28481 14.7516C2.33424 14.7993 2.39292 14.8372 2.4575 14.863C2.52208 14.8888 2.5913 14.9021 2.6612 14.9021H3.72568C4.14916 14.9021 4.55529 14.7396 4.85473 14.4505C5.15417 14.1613 5.3224 13.7691 5.3224 13.3602C5.3224 12.9513 5.15417 12.5591 4.85473 12.27C4.55529 11.9808 4.14916 11.8184 3.72568 11.8184H2.6612C2.5913 11.8183 2.52208 11.8316 2.4575 11.8574C2.39292 11.8833 2.33424 11.9211 2.28481 11.9689C2.23538 12.0166 2.19618 12.0732 2.16944 12.1356C2.1427 12.198 2.12894 12.2648 2.12896 12.3323V12.8463H1.59672C1.17339 12.8467 0.767522 13.0093 0.468179 13.2984C0.168836 13.5874 0.000462088 13.9793 0 14.3881V19.5277C0.00175384 21.0265 0.619143 22.4635 1.71672 23.5234C2.8143 24.5833 4.30243 25.1794 5.85464 25.1811ZM21.2896 20.0416C21.2896 19.8383 21.352 19.6396 21.469 19.4705C21.586 19.3015 21.7522 19.1697 21.9467 19.0919C22.1412 19.0141 22.3553 18.9938 22.5618 19.0335C22.7682 19.0731 22.9579 19.171 23.1068 19.3148C23.2557 19.4585 23.357 19.6417 23.3981 19.8411C23.4392 20.0405 23.4181 20.2471 23.3375 20.435C23.257 20.6228 23.1205 20.7833 22.9455 20.8963C22.7704 21.0092 22.5646 21.0695 22.3541 21.0695C22.0719 21.0692 21.8013 20.9608 21.6017 20.7681C21.4022 20.5754 21.2899 20.3141 21.2896 20.0416ZM11.7093 13.8742H11.177C11.0359 13.8742 10.9005 13.82 10.8007 13.7236C10.7009 13.6273 10.6448 13.4965 10.6448 13.3602C10.6448 13.2239 10.7009 13.0932 10.8007 12.9968C10.9005 12.9004 11.0359 12.8463 11.177 12.8463H11.7093V13.8742ZM3.19344 12.8463H3.72568C3.86684 12.8463 4.00222 12.9004 4.10203 12.9968C4.20184 13.0932 4.25792 13.2239 4.25792 13.3602C4.25792 13.4965 4.20184 13.6273 4.10203 13.7236C4.00222 13.82 3.86684 13.8742 3.72568 13.8742H3.19344V12.8463Z" fill="black"/>
<path d="M16.8989 8.47744C16.9949 8.48576 17.0905 8.45741 17.1651 8.39847C17.2397 8.33953 17.2873 8.25469 17.2979 8.16218V8.02177C17.2873 7.92925 17.2397 7.84441 17.1651 7.78547C17.0905 7.72652 16.9949 7.69817 16.8989 7.70651C16.8029 7.69817 16.7069 7.72652 16.6323 7.78547C16.5577 7.84441 16.51 7.92925 16.4995 8.02177V8.16218C16.5101 8.25469 16.5577 8.33953 16.6323 8.39847C16.7069 8.45741 16.8029 8.48576 16.8989 8.47744Z" fill="black"/>
<path d="M19.0757 8.47744C19.1717 8.48576 19.2677 8.45741 19.3423 8.39847C19.4169 8.33953 19.4646 8.25469 19.4751 8.16218V8.02177C19.4646 7.92925 19.4169 7.84441 19.3423 7.78547C19.2677 7.72652 19.1722 7.69817 19.0762 7.70651C18.9802 7.69817 18.8842 7.72652 18.8096 7.78547C18.735 7.84441 18.6873 7.92925 18.6768 8.02177V8.16218C18.6873 8.25469 18.735 8.33953 18.8096 8.39847C18.8842 8.45741 18.9797 8.48576 19.0757 8.47744Z" fill="black"/>
<path d="M25.1482 6.1362C25.0522 6.12785 24.9566 6.15619 24.882 6.21514C24.8073 6.27408 24.7596 6.35892 24.749 6.45146V6.59188C24.7677 6.68084 24.8176 6.76083 24.8904 6.81829C24.9631 6.87575 25.0542 6.90714 25.1482 6.90714C25.2422 6.90714 25.3333 6.87575 25.406 6.81829C25.4788 6.76083 25.5287 6.68084 25.5474 6.59188V6.45148C25.5368 6.35894 25.4891 6.27409 25.4145 6.21514C25.3398 6.1562 25.2442 6.12785 25.1482 6.1362Z" fill="black"/>
<path d="M27.7612 6.13619C27.6652 6.12787 27.5692 6.15622 27.4946 6.21516C27.42 6.27411 27.3724 6.35894 27.3618 6.45146V6.59188C27.3723 6.68439 27.42 6.76923 27.4946 6.82818C27.5692 6.88712 27.6648 6.91547 27.7608 6.90714C27.8568 6.91547 27.9528 6.88712 28.0274 6.82818C28.102 6.76923 28.1496 6.68439 28.1602 6.59188V6.45147C28.1496 6.35895 28.102 6.27411 28.0274 6.21517C27.9528 6.15622 27.8572 6.12787 27.7612 6.13619Z" fill="black"/>
<path d="M26.5515 7.91213H26.3577C26.2435 7.91092 26.1335 7.95354 26.0519 8.03063C25.9702 8.10771 25.9237 8.21295 25.9224 8.3232C25.9237 8.43344 25.9702 8.5389 26.0519 8.61598C26.1335 8.69306 26.2435 8.73568 26.3577 8.73446H26.5515C26.6657 8.73568 26.7757 8.69305 26.8573 8.61597C26.939 8.53888 26.9856 8.43365 26.9868 8.3234C26.9855 8.21316 26.939 8.1077 26.8573 8.03062C26.7757 7.95354 26.6657 7.91092 26.5515 7.91213Z" fill="black"/>
</svg>
