<svg width="24" height="26" viewBox="0 0 24 26" fill="none" xmlns="http://www.w3.org/2000/svg">
<path d="M22.8674 11.3357C23.4498 11.3357 23.9236 10.8619 23.9236 10.2796V7.7738C23.9236 7.19141 23.4498 6.71764 22.8674 6.71764H22.7806V4.07675C22.7806 3.49436 22.3068 3.02059 21.7244 3.02059H15.7333V1.63331C15.7333 1.05092 15.2595 0.577148 14.6771 0.577148H9.24644C8.66405 0.577148 8.19028 1.05092 8.19028 1.63331V3.02059H2.19918C1.6168 3.02059 1.14303 3.49436 1.14303 4.07675V6.71764H1.05616C0.473774 6.71764 0 7.19141 0 7.7738V10.2796C0 10.8619 0.473774 11.3357 1.05616 11.3357H1.14303V24.3602H0.531375C0.237925 24.3602 0 24.5981 0 24.8916C0 25.185 0.237925 25.423 0.531375 25.423H1.6744H13.6399H19.7282H22.2492H23.3922C23.6857 25.423 23.9236 25.185 23.9236 24.8916C23.9236 24.5981 23.6857 24.3602 23.3922 24.3602H22.7806V11.3357H22.8674ZM21.7178 4.08334V6.71764H15.7333V4.08334H21.7178ZM9.25303 1.6399H14.6706V3.55196V6.71764H9.25303V3.55196V1.6399ZM2.20578 4.08334H8.19028V6.71764H2.20578V4.08334ZM1.06275 7.78039H1.6744H8.72165H15.2019H22.2492H22.8608V10.273H22.2492H1.6744H1.06275V7.78039ZM14.1712 24.3602V15.4737H19.1968V24.3602H14.1712ZM21.7178 24.3602H20.2595V14.9424C20.2595 14.6489 20.0216 14.411 19.7282 14.411H13.6399C13.3464 14.411 13.1085 14.6489 13.1085 14.9424V24.3602H2.20578V11.3357H21.7178V24.3602Z" fill="black"/>
<path d="M11.3227 6.04851H12.6006V4.8175H13.8316V3.5396H12.6006V2.30859H11.3227V3.5396H10.0917V4.8175H11.3227V6.04851Z" fill="black"/>
<path d="M4.19565 20.4485H11.5806C11.8741 20.4485 12.112 20.2105 12.112 19.9171V14.9425C12.112 14.6491 11.8741 14.4111 11.5806 14.4111H4.19565C3.9022 14.4111 3.66428 14.6491 3.66428 14.9425V19.9171C3.66428 20.2105 3.9022 20.4485 4.19565 20.4485ZM4.72703 15.4739H11.0492V19.3857H4.72703V15.4739Z" fill="black"/>
</svg>
