<svg width="32" height="27" viewBox="0 0 32 27" fill="none" xmlns="http://www.w3.org/2000/svg">
<path d="M32 5.06481C31.9985 4.28973 31.69 3.54682 31.1419 2.99875C30.5938 2.45069 29.8509 2.14214 29.0758 2.14068H26.9903V0.551723C26.9903 0.405397 26.9322 0.265064 26.8287 0.161596C26.7253 0.0581279 26.5849 0 26.4386 0C26.2923 0 26.1519 0.0581279 26.0485 0.161596C25.945 0.265064 25.8869 0.405397 25.8869 0.551723V2.12413H21.771V0.551723C21.771 0.405397 21.7129 0.265064 21.6094 0.161596C21.506 0.0581279 21.3656 0 21.2193 0C21.073 0 20.9326 0.0581279 20.8292 0.161596C20.7257 0.265064 20.6676 0.405397 20.6676 0.551723V2.12413H16.5517V0.551723C16.5517 0.405397 16.4936 0.265064 16.3901 0.161596C16.2867 0.0581279 16.1463 0 16 0C15.8537 0 15.7133 0.0581279 15.6099 0.161596C15.5064 0.265064 15.4483 0.405397 15.4483 0.551723V2.12413H11.3324V0.551723C11.3324 0.405397 11.2743 0.265064 11.1708 0.161596C11.0674 0.0581279 10.927 0 10.7807 0C10.6344 0 10.494 0.0581279 10.3906 0.161596C10.2871 0.265064 10.229 0.405397 10.229 0.551723V2.12413H6.11313V0.551723C6.11313 0.405397 6.055 0.265064 5.95153 0.161596C5.84807 0.0581279 5.70773 0 5.56141 0C5.41508 0 5.27475 0.0581279 5.17128 0.161596C5.06781 0.265064 5.00968 0.405397 5.00968 0.551723V2.12413H2.92417C2.53898 2.12486 2.15771 2.20153 1.80219 2.34977C1.44666 2.49802 1.12386 2.71492 0.852258 2.98806C0.580655 3.2612 0.365582 3.58522 0.219349 3.94157C0.0731153 4.29793 -0.00140837 4.67962 4.31319e-05 5.06481V9.93101C4.31319e-05 9.93101 4.31319e-05 9.98066 4.31319e-05 10.0082V23.2882C-0.00213594 23.7065 0.0782724 24.121 0.236657 24.5082C0.395042 24.8953 0.628287 25.2473 0.923016 25.5441C1.21775 25.8409 1.56816 26.0766 1.95417 26.2376C2.34018 26.3987 2.75419 26.482 3.17245 26.4827H28.8276C29.2458 26.482 29.6598 26.3987 30.0458 26.2376C30.4318 26.0766 30.7823 25.8409 31.077 25.5441C31.3717 25.2473 31.605 24.8953 31.7633 24.5082C31.9217 24.121 32.0021 23.7065 32 23.2882V10.0082C32 9.98066 32 9.95859 32 9.93101V5.06481ZM2.92417 3.24413H5.00968V4.30895C5.00968 4.45528 5.06781 4.59561 5.17128 4.69908C5.27475 4.80255 5.41508 4.86068 5.56141 4.86068C5.70773 4.86068 5.84807 4.80255 5.95153 4.69908C6.055 4.59561 6.11313 4.45528 6.11313 4.30895V3.24413H10.229V4.30895C10.229 4.45528 10.2871 4.59561 10.3906 4.69908C10.494 4.80255 10.6344 4.86068 10.7807 4.86068C10.927 4.86068 11.0674 4.80255 11.1708 4.69908C11.2743 4.59561 11.3324 4.45528 11.3324 4.30895V3.24413H15.4483V4.30895C15.4483 4.45528 15.5064 4.59561 15.6099 4.69908C15.7133 4.80255 15.8537 4.86068 16 4.86068C16.1463 4.86068 16.2867 4.80255 16.3901 4.69908C16.4936 4.59561 16.5517 4.45528 16.5517 4.30895V3.24413H20.6676V4.30895C20.6676 4.45528 20.7257 4.59561 20.8292 4.69908C20.9326 4.80255 21.073 4.86068 21.2193 4.86068C21.3656 4.86068 21.506 4.80255 21.6094 4.69908C21.7129 4.59561 21.771 4.45528 21.771 4.30895V3.24413H25.8869V4.30895C25.8869 4.45528 25.945 4.59561 26.0485 4.69908C26.1519 4.80255 26.2923 4.86068 26.4386 4.86068C26.5849 4.86068 26.7253 4.80255 26.8287 4.69908C26.9322 4.59561 26.9903 4.45528 26.9903 4.30895V3.24413H29.0758C29.5587 3.24413 30.0218 3.43595 30.3632 3.7774C30.7047 4.11884 30.8965 4.58194 30.8965 5.06481V7.60826C30.3221 7.11044 29.5876 6.83622 28.8276 6.83584H3.17245C2.41236 6.83622 1.67786 7.11044 1.10349 7.60826V5.06481C1.10349 4.58194 1.29531 4.11884 1.63675 3.7774C1.9782 3.43595 2.4413 3.24413 2.92417 3.24413ZM30.8965 23.2882C30.8987 23.5616 30.8468 23.8326 30.7439 24.0859C30.641 24.3391 30.489 24.5695 30.2967 24.7638C30.1045 24.9582 29.8757 25.1126 29.6236 25.2182C29.3714 25.3238 29.1009 25.3785 28.8276 25.3792H3.17245C2.89909 25.3785 2.62857 25.3238 2.37644 25.2182C2.1243 25.1126 1.89553 24.9582 1.70326 24.7638C1.511 24.5695 1.35903 24.3391 1.2561 24.0859C1.15317 23.8326 1.10131 23.5616 1.10349 23.2882V10.0082C1.10349 9.45953 1.32147 8.93328 1.70947 8.54527C2.09748 8.15727 2.62373 7.93929 3.17245 7.93929H28.8276C29.3763 7.93929 29.9025 8.15727 30.2905 8.54527C30.6785 8.93328 30.8965 9.45953 30.8965 10.0082V23.2882Z" fill="black"/>
<path d="M16 15.7349C14.5604 15.7157 13.1719 16.2674 12.1379 17.2693C11.104 18.2711 10.5089 19.6417 10.4828 21.0811C10.4828 21.688 10.8138 22.5266 12.4028 23.0949C13.5652 23.4756 14.7825 23.662 16.0055 23.6466C18.549 23.6466 21.5228 22.979 21.5228 21.1032C21.5127 20.3881 21.3618 19.6819 21.0788 19.0251C20.7958 18.3683 20.3862 17.7736 19.8733 17.2751C19.3605 16.7766 18.7545 16.384 18.0899 16.1197C17.4253 15.8555 16.7151 15.7247 16 15.7349ZM16 22.5211C13.3517 22.5211 11.5862 21.7763 11.5862 21.0811C11.5862 19.9105 12.0513 18.7879 12.879 17.9601C13.7067 17.1324 14.8294 16.6673 16 16.6673C17.1706 16.6673 18.2933 17.1324 19.121 17.9601C19.9488 18.7879 20.4138 19.9105 20.4138 21.0811C20.4138 21.7763 18.6538 22.5211 16 22.5211Z" fill="black"/>
<path d="M17.8593 14.6818C18.0304 14.7671 18.2199 14.8088 18.4111 14.8032C18.6019 14.8064 18.7909 14.7649 18.9628 14.6818C19.2926 14.4926 19.5784 14.2354 19.801 13.9272C20.0236 13.6189 20.178 13.2668 20.2538 12.8942C20.6235 11.5314 20.2814 10.2018 19.4593 9.79904C19.295 9.71984 19.1149 9.67871 18.9324 9.67871C18.75 9.67871 18.5699 9.71984 18.4055 9.79904C18.0669 9.98336 17.7719 10.2384 17.5406 10.5468C17.3092 10.8553 17.147 11.2099 17.0649 11.5866C16.6952 12.9494 17.0373 14.279 17.8593 14.6818ZM18.1297 11.879C18.2007 11.4358 18.4448 11.039 18.8083 10.7756H18.8855C18.898 10.7709 18.9117 10.7709 18.9242 10.7756C19.1393 10.8804 19.4042 11.6142 19.1393 12.5852C19.1028 12.8005 19.024 13.0063 18.9075 13.191C18.791 13.3756 18.6392 13.5354 18.4607 13.6611C18.389 13.6942 18.3614 13.6611 18.3448 13.6611C18.1352 13.5839 17.8649 12.8501 18.1297 11.879Z" fill="black"/>
<path d="M22.9076 13.2741C22.5899 13.2488 22.2706 13.2973 21.9748 13.416C21.6791 13.5347 21.4148 13.7203 21.2028 13.9583C20.3421 14.8245 20.0497 16.1652 20.5407 17.0424C20.6463 17.2417 20.798 17.4128 20.9833 17.5414C21.1685 17.67 21.3819 17.7524 21.6055 17.7817H21.8152C22.3833 17.7602 22.9202 17.5165 23.3103 17.1031C24.171 16.2369 24.4634 14.8962 23.9724 14.019C23.8668 13.8192 23.7151 13.6475 23.5299 13.5179C23.3448 13.3884 23.1314 13.3048 22.9076 13.2741ZM22.5269 16.3196C22.4326 16.4335 22.3147 16.5256 22.1813 16.5894C22.048 16.6532 21.9023 16.6873 21.7545 16.6893C21.7001 16.6811 21.6485 16.6598 21.6042 16.6271C21.56 16.5944 21.5244 16.5513 21.5007 16.5017C21.4033 16.1924 21.3967 15.8615 21.4818 15.5486C21.5669 15.2356 21.74 14.9536 21.9807 14.7362C22.1645 14.5268 22.4208 14.3948 22.6979 14.3665H22.7586C22.813 14.3747 22.8646 14.396 22.9089 14.4287C22.9531 14.4614 22.9887 14.5045 23.0124 14.5541C23.1099 14.8639 23.1159 15.1953 23.0298 15.5084C22.9437 15.8216 22.7691 16.1032 22.5269 16.3196Z" fill="#fff"/>
<path d="M13.1035 14.6812C13.2756 14.7637 13.4644 14.8052 13.6552 14.8026C13.837 14.8038 14.0166 14.7622 14.1794 14.6812C15.0069 14.2784 15.349 12.9488 14.9738 11.586C14.8973 11.2137 14.7427 10.8618 14.5201 10.5537C14.2976 10.2455 14.0122 9.98812 13.6828 9.79843C13.5183 9.71962 13.3383 9.67871 13.1559 9.67871C12.9735 9.67871 12.7935 9.71962 12.629 9.79843C11.8069 10.2067 11.4649 11.5308 11.8345 12.8936C11.9079 13.2643 12.0588 13.6152 12.2776 13.9233C12.4963 14.2314 12.7778 14.4897 13.1035 14.6812ZM13.1035 10.8191H13.1421C13.1676 10.8136 13.1939 10.8136 13.2194 10.8191C13.4009 10.948 13.5545 11.1121 13.6711 11.3017C13.7877 11.4913 13.8649 11.7025 13.898 11.9226C14.1628 12.8936 13.898 13.6274 13.6828 13.7322C13.6828 13.7322 13.6387 13.7322 13.5669 13.7322C13.2096 13.4754 12.9662 13.0895 12.8883 12.6564C12.6125 11.6302 12.8828 10.8964 13.0925 10.7915L13.1035 10.8191Z" fill="black"/>
<path d="M11.4594 17.0424C11.9504 16.1762 11.658 14.8355 10.7973 13.9583C10.5853 13.7203 10.321 13.5347 10.0252 13.416C9.72943 13.2973 9.41017 13.2488 9.09247 13.2741C8.86913 13.3043 8.65614 13.387 8.47101 13.5155C8.28589 13.6441 8.13394 13.8147 8.02764 14.0134C7.53661 14.8741 7.82902 16.2203 8.68971 17.0976C9.07711 17.5171 9.61439 17.7669 10.1849 17.7927H10.3945C10.6192 17.7623 10.8333 17.6783 11.0186 17.5476C11.204 17.417 11.3551 17.2437 11.4594 17.0424ZM10.4994 16.4907C10.4756 16.5403 10.4401 16.5834 10.3958 16.6161C10.3516 16.6488 10.3 16.6701 10.2456 16.6783C10.0977 16.6763 9.95209 16.6422 9.81872 16.5783C9.68536 16.5145 9.56745 16.4225 9.47316 16.3086C9.23099 16.0922 9.05638 15.8105 8.97026 15.4974C8.88414 15.1842 8.89018 14.8529 8.98764 14.5431C9.01139 14.4935 9.04694 14.4504 9.09119 14.4177C9.13543 14.385 9.18702 14.3636 9.24143 14.3555C9.39021 14.3567 9.53692 14.3904 9.6713 14.4543C9.80568 14.5181 9.92447 14.6106 10.0194 14.7252C10.2592 14.9454 10.4305 15.2301 10.5127 15.5452C10.5949 15.8603 10.5845 16.1924 10.4828 16.5017L10.4994 16.4907Z" fill="black"/>
</svg>
