<svg width="71" height="67" viewBox="0 0 71 67" fill="none" xmlns="http://www.w3.org/2000/svg">
<rect x="1" y="1" width="69" height="65" rx="8" stroke="#929292" stroke-width="2"/>
<path d="M28.3571 30.4444V25.1111C28.3571 21.1822 31.5536 18 35.5 18C39.4464 18 42.6429 21.1822 42.6429 25.1111V30.4444M35.5 39.3333C35.9736 39.3333 36.4278 39.146 36.7627 38.8126C37.0976 38.4792 37.2857 38.0271 37.2857 37.5556C37.2857 37.0841 37.0976 36.6319 36.7627 36.2985C36.4278 35.9651 35.9736 35.7778 35.5 35.7778C35.0264 35.7778 34.5722 35.9651 34.2373 36.2985C33.9024 36.6319 33.7143 37.0841 33.7143 37.5556C33.7143 38.0271 33.9024 38.4792 34.2373 38.8126C34.5722 39.146 35.0264 39.3333 35.5 39.3333ZM35.5 39.3333V44.6667M25.8571 30.4444H45.1429C46.7143 30.4444 48 31.7244 48 33.2889V45.7333C48 48.08 46.0714 50 43.7143 50H27.2857C24.9286 50 23 48.08 23 45.7333V33.2889C23 31.7244 24.2857 30.4444 25.8571 30.4444Z" stroke="#929292" stroke-width="1.5" stroke-miterlimit="10" stroke-linecap="round" stroke-linejoin="round"/>
</svg>
