<svg width="14" height="9" viewBox="0 0 14 9" fill="none" xmlns="http://www.w3.org/2000/svg">
<path d="M9.56085 1.95195H11.5126L7.66016 5.55622L5.32574 3.37217C5.21519 3.2767 5.0855 3.22896 4.93668 3.22896C4.78785 3.22896 4.66241 3.2767 4.56036 3.37217L0.478333 7.19127C0.367778 7.2947 0.3125 7.41604 0.3125 7.55528C0.3125 7.69451 0.367778 7.81187 0.478333 7.90735C0.580383 8.01078 0.705821 8.0625 0.854645 8.0625C1.00347 8.0625 1.13316 8.01078 1.24371 7.90735L4.94305 4.45823L7.27747 6.64227C7.37952 6.73775 7.50708 6.78549 7.66016 6.78549C7.81323 6.78549 7.9408 6.73775 8.04285 6.64227L12.2907 2.66803V4.49403C12.2907 4.63725 12.3439 4.75858 12.4502 4.85804C12.5565 4.9575 12.6819 5.00722 12.8265 5.00722C12.9796 5.00722 13.1092 4.9575 13.2155 4.85804C13.3218 4.75858 13.375 4.63725 13.375 4.49403V1.43876C13.375 1.40693 13.3707 1.3751 13.3622 1.34328C13.3537 1.31145 13.3452 1.27963 13.3367 1.2478C13.3197 1.21598 13.3027 1.18614 13.2857 1.15829C13.2687 1.13044 13.2474 1.10459 13.2219 1.08072C13.2219 1.08072 13.2198 1.08072 13.2155 1.08072C13.2113 1.08072 13.2092 1.08072 13.2092 1.08072C13.1922 1.05685 13.1688 1.03696 13.139 1.02104C13.1092 1.00513 13.0774 0.989217 13.0433 0.973304C13.0093 0.957391 12.9753 0.947445 12.9413 0.943467C12.9073 0.939489 12.869 0.9375 12.8265 0.9375H9.56085C9.41628 0.9375 9.29084 0.987228 9.18454 1.08668C9.07824 1.18614 9.02509 1.3035 9.02509 1.43876C9.02509 1.58197 9.07824 1.70331 9.18454 1.80276C9.29084 1.90222 9.41628 1.95195 9.56085 1.95195Z" fill="#1A2527"/>
</svg>
