<svg width="12" height="7" viewBox="0 0 12 7" fill="none" xmlns="http://www.w3.org/2000/svg">
<path d="M8.49609 7H11.4961C11.5352 7 11.5703 6.99609 11.6016 6.98827C11.6328 6.98046 11.6641 6.97264 11.6953 6.96482C11.7188 6.94919 11.7441 6.93356 11.7715 6.91792C11.7988 6.90229 11.8242 6.87884 11.8477 6.84757C11.8789 6.82412 11.9023 6.79872 11.918 6.77136C11.9336 6.744 11.9492 6.71859 11.9648 6.69514C11.9727 6.66387 11.9805 6.63261 11.9883 6.60134C11.9961 6.57007 12 6.5349 12 6.49581V3.49414C12 3.36125 11.9512 3.24595 11.8535 3.14824C11.7559 3.05053 11.6367 3.00167 11.4961 3.00167C11.3633 3.00167 11.248 3.05053 11.1504 3.14824C11.0527 3.24595 11.0039 3.36125 11.0039 3.49414V5.28811L7.10156 1.39531C7.00781 1.29369 6.89062 1.24288 6.75 1.24288C6.60938 1.24288 6.49219 1.29369 6.39844 1.39531L4.25391 3.54104L0.855469 0.140703C0.753906 0.0469007 0.634766 0 0.498047 0C0.361328 0 0.242188 0.0469007 0.140625 0.140703C0.046875 0.242322 0 0.36153 0 0.498325C0 0.63512 0.046875 0.750419 0.140625 0.844221L3.89062 4.59631C3.99219 4.69793 4.11133 4.74874 4.24805 4.74874C4.38477 4.74874 4.50391 4.69793 4.60547 4.59631L6.75 2.45059L10.2891 6.00335H8.49609C8.36328 6.00335 8.24805 6.05221 8.15039 6.14992C8.05273 6.24763 8.00391 6.36293 8.00391 6.49581C8.00391 6.63652 8.05273 6.75572 8.15039 6.85343C8.24805 6.95114 8.36328 7 8.49609 7Z" fill="#EF4444"/>
</svg>
