<svg width="19" height="15" viewBox="0 0 19 15" fill="none" xmlns="http://www.w3.org/2000/svg">
<path d="M4.51711 11.4391L4.5172 11.439C4.83739 11.0578 5.44447 10.7213 6.17966 10.4154C6.91927 10.1076 7.80593 9.82407 8.70137 9.55627L8.70178 9.55614C8.77813 9.53367 8.85506 9.51081 8.92263 9.49028C8.87793 9.38419 8.79144 9.21704 8.62577 8.96005L8.62572 8.95996L8.56962 8.87275L8.56959 8.87269L8.56779 8.86991C8.44331 8.67665 8.34507 8.52415 8.26551 8.35138C8.18483 8.17621 8.12456 7.98319 8.0703 7.7062L8.07026 7.70598C8.06271 7.66696 8.0342 7.58884 7.99142 7.50302C7.94882 7.41758 7.89886 7.33825 7.85489 7.29238L7.85483 7.29232C7.77276 7.20656 7.69617 7.07535 7.63021 6.92494C7.56348 6.77275 7.5046 6.59385 7.46089 6.407C7.37445 6.03743 7.34323 5.61857 7.44444 5.30885L7.44471 5.30804C7.4534 5.2822 7.47173 5.23842 7.49858 5.18307L4.51711 11.4391ZM4.51711 11.4391C4.18325 11.8375 4.06887 12.3007 4.21426 12.7391L4.21427 12.7391M4.51711 11.4391L4.21427 12.7391M4.21427 12.7391C4.37839 13.2335 4.84076 13.5853 5.45789 13.7194M4.21427 12.7391L13.3301 9.4905M13.3301 9.4905C13.3978 9.51106 13.4748 9.53395 13.551 9.55645L13.5514 9.55655C14.4467 9.82406 15.3333 10.1076 16.0729 10.4154C16.808 10.7214 17.4151 11.0581 17.7353 11.4396L17.6587 11.5039L17.7353 11.4396C18.0693 11.8375 18.1836 12.3007 18.0379 12.7391C17.8741 13.2336 17.4117 13.5853 16.7946 13.7194C15.339 14.0371 13.5411 14.1 11.1262 14.1C8.71139 14.1 6.91404 14.0374 5.45789 13.7194M13.3301 9.4905C13.3749 9.38445 13.4617 9.217 13.6275 8.95978L13.6276 8.95968L13.6837 8.87242L13.6837 8.87241L13.687 8.86729C13.8107 8.67517 13.9084 8.52331 13.9875 8.35138C14.0682 8.17634 14.1284 7.98344 14.1825 7.70644M13.3301 9.4905L12.5844 1.12691C13.4629 1.45443 14.1975 2.19435 14.454 3.021M5.45789 13.7194L5.47922 13.6217M5.45789 13.7194C5.45792 13.7194 5.45795 13.7195 5.45798 13.7195L5.47922 13.6217M5.47922 13.6217C4.88564 13.4927 4.45905 13.1591 4.30918 12.7076L16.7733 13.6217C15.3296 13.9368 13.5418 14 11.1262 14C8.71066 14 6.92346 13.9371 5.47922 13.6217ZM14.1825 7.70644C14.1825 7.70647 14.1825 7.70649 14.1825 7.70652L14.0843 7.68727L14.1825 7.70644ZM14.1825 7.70644C14.1902 7.6673 14.2188 7.58916 14.2617 7.50346C14.3043 7.41805 14.3543 7.33889 14.3981 7.29332L14.3983 7.2931C14.4803 7.20723 14.5569 7.07594 14.6228 6.92543C14.6896 6.77316 14.7484 6.59419 14.7921 6.40727C14.8785 6.03766 14.9097 5.61881 14.8084 5.30885C14.7999 5.28221 14.7808 5.23736 14.7549 5.18334L14.7546 5.18274L14.7541 5.18183C14.7389 5.15069 14.7105 5.09249 14.6866 5.03096C14.6745 4.9999 14.6643 4.96969 14.6575 4.94301C14.6504 4.91489 14.6488 4.89721 14.6494 4.88882L14.6494 4.88854C14.6948 4.21486 14.6297 3.58632 14.454 3.021M14.454 3.021L14.3585 3.05064M14.454 3.021C14.454 3.02099 14.454 3.02098 14.454 3.02097L14.3585 3.05064M14.3585 3.05064C14.53 3.60258 14.5943 4.2186 14.5497 4.88183L14.3585 3.05064ZM8.99526 10.5725L8.9952 10.5725C8.55661 10.7033 7.75827 10.9416 7.00417 11.2253C6.62703 11.3671 6.26303 11.5195 5.96163 11.6746C5.65701 11.8314 5.4281 11.9851 5.30995 12.1258C5.27251 12.1704 5.23689 12.2219 5.21543 12.2733C5.19391 12.3248 5.19027 12.3671 5.20166 12.4013L5.20171 12.4014C5.22539 12.4728 5.3482 12.6135 5.67651 12.6851L5.67653 12.6851C7.03636 12.9821 8.7647 13.0422 11.1262 13.0422C13.4881 13.0422 15.2164 12.9821 16.576 12.6851L16.576 12.6851C16.9044 12.6135 17.027 12.4728 17.0504 12.4016L17.0505 12.4014C17.0618 12.3673 17.0582 12.3251 17.0367 12.2735C17.0152 12.2221 16.9797 12.1707 16.9423 12.1261L16.9422 12.1261C16.8242 11.9854 16.5954 11.8317 16.2909 11.6749C15.9896 11.5198 15.6256 11.3674 15.2485 11.2255C14.4944 10.9419 13.696 10.7036 13.2573 10.5728L13.2572 10.5728C12.9414 10.4784 12.8006 10.4358 12.7168 10.3992L12.7166 10.3991C12.5007 10.3041 12.3443 10.1268 12.2784 9.90142C12.2061 9.65543 12.2506 9.39438 12.347 9.14022C12.4435 8.8857 12.5964 8.6269 12.7556 8.38013L12.7558 8.37986L12.8117 8.29379C12.9269 8.11491 12.9946 8.00905 13.044 7.90138C13.0923 7.79617 13.1243 7.6863 13.1608 7.50045L8.99526 10.5725ZM8.99526 10.5725C9.31112 10.4781 9.45164 10.4355 9.53541 10.3989L9.53566 10.3988M8.99526 10.5725L9.53566 10.3988M9.53566 10.3988C9.7516 10.3038 9.90794 10.1265 9.97412 9.90116L9.53566 10.3988ZM9.4416 8.29371L9.4418 8.29402L9.49746 8.381C9.65648 8.62762 9.80927 8.88621 9.90569 9.14051C10.002 9.39447 10.0464 9.65529 9.97413 9.90114L9.4416 8.29371ZM9.4416 8.29371C9.32628 8.11499 9.25848 8.00921 9.20904 7.90157M9.4416 8.29371L9.20904 7.90157M8.7927 3.33951L8.79268 3.33956C8.65746 3.77449 8.60624 4.27118 8.64288 4.81587L8.7927 3.33951ZM8.7927 3.33951C8.95024 2.83193 9.44491 2.33727 10.0276 2.12002L10.0277 2.12001M8.7927 3.33951L10.0277 2.12001M10.0277 2.12001C10.4264 1.97116 10.784 1.95808 11.1265 1.95808C11.4691 1.95808 11.8266 1.97115 12.2257 2.12002L12.2606 2.02632M10.0277 2.12001L12.2606 2.02632M12.2606 2.02632L12.2257 2.12002C12.8081 2.33727 13.3031 2.83222 13.4603 3.33948L13.4604 3.33951M12.2606 2.02632L13.4604 3.33951M13.4604 3.33951C13.5953 3.7745 13.6468 4.27123 13.6102 4.81647M13.4604 3.33951L13.6102 4.81647M2.20598 11.5057L2.20611 11.5058C2.50197 11.5708 2.83903 11.6221 3.2372 11.6633C3.23722 11.6633 3.23725 11.6633 3.23728 11.6633L2.20598 11.5057ZM2.20598 11.5057C2.09917 11.4824 2.03046 11.4492 1.98909 11.4208C1.96246 11.4026 1.94927 11.3879 1.9434 11.3803C1.94468 11.3763 1.94674 11.3709 1.94995 11.3642C1.96043 11.3421 1.97802 11.3161 1.99792 11.2924L1.99798 11.2923M2.20598 11.5057L1.99798 11.2923M1.99798 11.2923C2.07852 11.1964 2.24581 11.0856 2.47657 10.9693C2.70352 10.8549 2.97914 10.7412 3.26361 10.6352C3.83097 10.4238 4.42545 10.2462 4.7227 10.1574L4.72481 10.1568C4.97978 10.0806 5.08054 10.0504 5.15096 10.0194L5.15115 10.0194M1.99798 11.2923L5.15115 10.0194M5.15115 10.0194C5.34879 9.93201 5.49244 9.76907 5.55327 9.56211C5.61572 9.35009 5.58187 9.13139 5.50521 8.9219C5.42864 8.71263 5.30597 8.50344 5.17916 8.30592L5.17913 8.30587M5.15115 10.0194L5.17913 8.30587M5.17913 8.30587L5.13591 8.23863L5.13584 8.23853M5.17913 8.30587L5.13584 8.23853M5.13584 8.23853C5.04813 8.10243 5.0006 8.02826 4.96712 7.95532C4.93492 7.88516 4.91463 7.81342 4.88893 7.68242M5.13584 8.23853L4.6584 4.59673M4.6584 4.59673L4.65839 4.59674C4.56106 4.91035 4.52386 5.26999 4.55068 5.66708C4.57005 5.9537 4.45301 6.2111 4.38303 6.35644C4.38001 6.37878 4.37983 6.41465 4.38464 6.46326C4.39 6.51755 4.40076 6.58009 4.41495 6.64314C4.44273 6.76662 4.48022 6.87701 4.50782 6.92765C4.70323 7.14499 4.84777 7.4706 4.88893 7.68242M4.6584 4.59673C4.7659 4.25024 5.10876 3.90709 5.51575 3.75582L5.51593 3.75575M4.6584 4.59673L5.51593 3.75575M4.88893 7.68242C4.88893 7.68245 4.88894 7.68248 4.88895 7.68251L4.79078 7.70157L4.88891 7.68232C4.88892 7.68235 4.88892 7.68238 4.88893 7.68242ZM5.51593 3.75575C5.79751 3.65046 6.05386 3.64106 6.30434 3.64106M5.51593 3.75575L6.30434 3.64106M3.73746 7.64005L3.73743 7.64002C3.6685 7.56812 3.60454 7.46033 3.54973 7.33808C3.4942 7.21423 3.44515 7.06898 3.40877 6.91694C3.33691 6.6167 3.31039 6.2728 3.39662 6.01002L3.49164 6.0412L3.39629 6.01103C3.40396 5.9868 3.42056 5.94588 3.44497 5.89581L3.53486 5.93963L3.4448 5.89615C3.47502 5.83357 3.49215 5.79126 3.50155 5.76353C3.50787 5.74493 3.50996 5.73502 3.51064 5.73139C3.47612 5.20867 3.52737 4.71948 3.66443 4.27796C3.87321 3.60482 4.44663 3.02645 5.1569 2.76181L3.73746 7.64005ZM3.73746 7.64005C3.75835 7.66182 3.78873 7.70926 3.81716 7.7655C3.84584 7.82224 3.8635 7.86992 3.8669 7.88759L3.86697 7.88792M3.73746 7.64005L3.86697 7.88792M3.86697 7.88792C3.91047 8.10968 3.9602 8.2668 4.02543 8.4082C4.08963 8.54737 4.16771 8.66852 4.26252 8.81563L4.26408 8.81804L4.26413 8.81812L4.29186 8.86124L4.29189 8.86128C4.36547 8.97557 4.41792 9.06475 4.4553 9.13386M3.86697 7.88792L4.4553 9.13386M4.4553 9.13386C4.44736 9.13622 4.43931 9.13862 4.43115 9.14104L4.43099 9.14109C3.746 9.34567 3.06629 9.56323 2.49731 9.80154C1.93246 10.0381 1.46018 10.3016 1.20544 10.6053L1.20535 10.6054C0.927267 10.9379 0.828905 11.3424 0.952511 11.7145C1.09169 12.1341 1.47705 12.4297 1.98731 12.5409C1.98733 12.5409 1.98735 12.5409 1.98737 12.5409L2.00866 12.4432M4.4553 9.13386L3.70285 12.243C3.70285 12.2431 3.70284 12.2431 3.70284 12.2431L3.60334 12.2332C3.58144 12.4544 3.39874 12.6192 3.18516 12.6192C3.17113 12.6192 3.15682 12.6186 3.14222 12.6169M2.00866 12.4432C2.33984 12.5156 2.71058 12.5725 3.14222 12.6169M2.00866 12.4432C1.52285 12.3373 1.1726 12.0604 1.04743 11.683L2.00866 12.4432ZM3.14222 12.6169L3.13053 12.7162C3.13078 12.7162 3.13103 12.7163 3.13128 12.7163C3.13152 12.7163 3.13176 12.7163 3.132 12.7164L3.14222 12.6169ZM9.20904 7.90157C9.16072 7.79637 9.12875 7.68642 9.09225 7.50035M9.20904 7.90157L9.09225 7.50035M9.09225 7.50035C9.0402 7.23284 8.84765 6.81576 8.60786 6.56146M9.09225 7.50035L8.60786 6.56146M8.60786 6.56146C8.59289 6.53801 8.57002 6.48828 8.54431 6.4146C8.5177 6.33833 8.49093 6.24496 8.46893 6.14756C8.4469 6.05006 8.43009 5.95042 8.42269 5.86137C8.41557 5.77565 8.41786 5.70709 8.42832 5.66101L8.43236 5.65263L8.4325 5.65234L8.43441 5.64843C8.50683 5.49965 8.66684 5.17094 8.64289 4.81589L8.60786 6.56146ZM13.6102 4.81647C13.5859 5.17125 13.7465 5.50046 13.8188 5.6488M13.6102 4.81647L13.8188 5.6488M13.8188 5.6488L13.8205 5.65233M13.8188 5.6488L13.8205 5.65233M13.8205 5.65233L13.8207 5.6527M13.8205 5.65233L13.8207 5.6527M13.8207 5.6527L13.8247 5.66093C13.8351 5.70718 13.8373 5.77585 13.83 5.8617C13.8225 5.95095 13.8053 6.05095 13.7826 6.14913C13.76 6.24721 13.7322 6.34159 13.7042 6.4194C13.6769 6.49498 13.652 6.54746 13.6346 6.57369C13.519 6.69552 13.4148 6.85973 13.3333 7.02331C13.2506 7.18951 13.1877 7.36246 13.1608 7.50033L13.8207 5.6527ZM6.30434 3.64106C6.42553 3.64106 6.56463 3.64365 6.70442 3.66084M6.30434 3.64106L6.70442 3.66084M6.70442 3.66084C6.99285 3.69796 7.25091 3.48876 7.2857 3.20035M6.70442 3.66084L7.2857 3.20035M7.2857 3.20035C7.32077 2.91224 7.12001 2.64663 6.83264 2.61065C6.83263 2.61065 6.83261 2.61065 6.8326 2.61064L6.82018 2.70987C6.62878 2.68584 6.45196 2.6824 6.30434 2.6824L7.2857 3.20035ZM7.49954 5.1811L7.49864 5.18295L12.5844 1.1269C12.0221 0.91713 11.5322 0.9 11.1265 0.9C10.7207 0.9 10.2312 0.917431 9.66872 1.12689L9.66869 1.1269C8.78987 1.45444 8.05555 2.19496 7.79902 3.02158C7.62367 3.58601 7.5583 4.21427 7.60362 4.88854L7.7034 4.88183L7.6036 4.88824C7.60416 4.89688 7.60251 4.91476 7.59534 4.94295C7.58853 4.96972 7.57827 4.99999 7.56622 5.03109C7.54263 5.09201 7.51476 5.14963 7.49954 5.1811ZM9.70361 1.22059L9.70361 1.22059L9.70361 1.22059ZM9.49537 10.3073C9.68453 10.224 9.82036 10.0698 9.87818 9.87296L8.96662 10.4767C9.28628 10.3811 9.41875 10.3408 9.49537 10.3073Z" fill="black" stroke="#4C4D51" stroke-width="0.2"/>
</svg>
