<svg width="12" height="12" viewBox="0 0 12 12" fill="none" xmlns="http://www.w3.org/2000/svg">
<path d="M3.14386 5.07871C3.33646 5.175 3.55207 5.2259 3.76737 5.2259C4.25144 5.2259 4.64524 4.8321 4.64524 4.34806C4.64524 4.1136 4.55393 3.89315 4.38813 3.72733L3.89453 3.23376C3.68149 3.02066 3.39818 2.90332 3.09685 2.90332C2.79552 2.90332 2.51221 3.02066 2.29919 3.23371L1.80557 3.72735C1.63977 3.89315 1.54846 4.11358 1.54846 4.34806C1.54846 4.8321 1.94226 5.2259 2.4263 5.2259C2.64162 5.2259 2.85724 5.175 3.04984 5.07871L3.09685 5.05519L3.14386 5.07871ZM2.87671 4.73247C2.7376 4.80203 2.58184 4.8388 2.4263 4.8388C2.15572 4.8388 1.93556 4.61864 1.93556 4.34806C1.93556 4.21698 1.98661 4.09374 2.07929 4.00105L2.57291 3.50743C2.71285 3.3675 2.89892 3.29042 3.09685 3.29042C3.29478 3.29042 3.48087 3.3675 3.62078 3.50743L4.11438 4.00103C4.20709 4.09374 4.25812 4.21698 4.25812 4.34806C4.25814 4.61864 4.03798 4.8388 3.7674 4.8388C3.61186 4.8388 3.4561 4.80203 3.31699 4.73247L3.09685 4.62239L2.87671 4.73247Z" fill="black"/>
<path d="M3.09683 2.51616C3.52372 2.51616 3.87102 2.16886 3.87102 1.74197C3.87102 1.31507 3.52372 0.967773 3.09683 0.967773C2.66993 0.967773 2.32263 1.31507 2.32263 1.74197C2.32263 2.16886 2.66993 2.51616 3.09683 2.51616ZM3.09683 1.35487C3.31026 1.35487 3.48392 1.52853 3.48392 1.74197C3.48392 1.9554 3.31026 2.12906 3.09683 2.12906C2.88339 2.12906 2.70973 1.9554 2.70973 1.74197C2.70973 1.52853 2.88339 1.35487 3.09683 1.35487Z" fill="black"/>
<path d="M4.64517 3.29057C5.07206 3.29057 5.41936 2.94328 5.41936 2.51638C5.41936 2.08949 5.07206 1.74219 4.64517 1.74219C4.21827 1.74219 3.87097 2.08949 3.87097 2.51638C3.87097 2.94328 4.21827 3.29057 4.64517 3.29057ZM4.64517 2.12928C4.8586 2.12928 5.03226 2.30295 5.03226 2.51638C5.03226 2.72982 4.8586 2.90348 4.64517 2.90348C4.43173 2.90348 4.25807 2.72982 4.25807 2.51638C4.25807 2.30295 4.43173 2.12928 4.64517 2.12928Z" fill="black"/>
<path d="M2.3228 2.51638C2.3228 2.08949 1.9755 1.74219 1.54861 1.74219C1.12171 1.74219 0.774414 2.08949 0.774414 2.51638C0.774414 2.94328 1.12171 3.29057 1.54861 3.29057C1.9755 3.29057 2.3228 2.94328 2.3228 2.51638ZM1.16151 2.51638C1.16151 2.30295 1.33517 2.12928 1.54861 2.12928C1.76204 2.12928 1.9357 2.30295 1.9357 2.51638C1.9357 2.72982 1.76204 2.90348 1.54861 2.90348C1.33517 2.90348 1.16151 2.72982 1.16151 2.51638Z" fill="black"/>
<path d="M11.6129 1.16129H10.8387V0.387097C10.8387 0.173661 10.665 0 10.4516 0H10.0645C9.85108 0 9.67742 0.173661 9.67742 0.387097V1.16129H9.29032V0.387097C9.29032 0.173661 9.11666 0 8.90323 0H8.51613C8.30269 0 8.12903 0.173661 8.12903 0.387097V1.16129H7.74194V0.387097C7.74194 0.173661 7.56827 0 7.35484 0H6.96774C6.75431 0 6.58065 0.173661 6.58065 0.387097V1.16129H5.51228C4.94424 0.453798 4.07257 0 3.09677 0C1.38919 0 0 1.38922 0 3.09677C0 4.24067 0.623468 5.2416 1.54839 5.77783V11.6129C1.54839 11.8263 1.72205 12 1.93548 12H9.08361C9.48194 12 9.82534 11.7612 9.9788 11.4194H11.6129C11.8263 11.4194 12 11.2457 12 11.0323V1.54839C12 1.33495 11.8263 1.16129 11.6129 1.16129ZM9.98228 10.6258C9.87346 10.3769 9.66343 10.1784 9.3938 10.0885L9.16074 10.0108L11.5753 8.50173L9.98228 10.6258ZM10.8219 8.51613H9.67742V7.35484H10.8387L10.8388 8.50558L10.8219 8.51613ZM10.0645 0.387097H10.4516L10.4519 2.32258C10.4519 2.32258 10.4518 2.32258 10.4516 2.32258H10.0645V0.387097ZM8.51613 0.387097H8.90323L8.90347 2.32258C8.90347 2.32258 8.90339 2.32258 8.90323 2.32258H8.51613V0.387097ZM6.96774 0.387097H7.35484L7.35508 2.32258C7.35508 2.32258 7.35501 2.32258 7.35484 2.32258H6.96774V0.387097ZM6.58065 1.54839V2.32258C6.58065 2.53602 6.75431 2.70968 6.96774 2.70968H7.35484C7.56827 2.70968 7.74194 2.53602 7.74194 2.32258V1.54839H8.12903V2.32258C8.12903 2.53602 8.30269 2.70968 8.51613 2.70968H8.90323C9.11666 2.70968 9.29032 2.53602 9.29032 2.32258V1.54839H9.67742V2.32258C9.67742 2.53602 9.85108 2.70968 10.0645 2.70968H10.4516C10.665 2.70968 10.8387 2.53602 10.8387 2.32258V1.54839H11.6129V3.48387H6.1694C6.1853 3.35702 6.19355 3.22785 6.19355 3.09677C6.19355 2.53309 6.04207 2.00417 5.77783 1.54839H6.58065ZM0.387097 3.09677C0.387097 1.60265 1.60265 0.387097 3.09677 0.387097C4.5909 0.387097 5.80645 1.60265 5.80645 3.09677C5.80645 4.5909 4.5909 5.80645 3.09677 5.80645C1.60265 5.80645 0.387097 4.5909 0.387097 3.09677ZM5.03226 5.51228C5.20919 5.37022 5.37022 5.20919 5.51228 5.03226H6.19355V6.19355H5.03226V5.51228ZM9.08361 11.6129H1.93548V5.96739C2.2943 6.11308 2.68628 6.19355 3.09677 6.19355C3.66046 6.19355 4.18938 6.04207 4.64516 5.77783V6.19355C4.64516 6.40698 4.81882 6.58065 5.03226 6.58065H6.19355C6.40698 6.58065 6.58065 6.40698 6.58065 6.19355V5.03226C6.58065 4.81882 6.40698 4.64516 6.19355 4.64516H5.77783C5.9168 4.40545 6.02463 4.14556 6.09556 3.87097H11.6129V8.02176L11.2258 8.26369V7.35484C11.2258 7.1414 11.0521 6.96774 10.8387 6.96774H9.67742C9.46398 6.96774 9.29032 7.1414 9.29032 7.35484V8.51613C9.29032 8.72956 9.46398 8.90323 9.67742 8.90323H10.2025L8.25861 10.1182L9.2714 10.4558C9.51426 10.5367 9.67742 10.7631 9.67742 11.0191C9.67742 11.3465 9.41105 11.6129 9.08361 11.6129ZM10.1613 11.0323L11.6129 9.09677V11.0323H10.1613Z" fill="black"/>
<path d="M7.35487 6.58099H8.51616C8.7296 6.58099 8.90326 6.40733 8.90326 6.19389V5.0326C8.90326 4.81917 8.7296 4.64551 8.51616 4.64551H7.35487C7.14143 4.64551 6.96777 4.81917 6.96777 5.0326V6.19389C6.96777 6.40733 7.14143 6.58099 7.35487 6.58099ZM7.35487 5.0326H8.51616L8.5164 6.19389C8.5164 6.19389 8.51633 6.19389 8.51616 6.19389H7.35487V5.0326Z" fill="black"/>
<path d="M9.6775 6.58099H10.8388C11.0522 6.58099 11.2259 6.40733 11.2259 6.19389V5.0326C11.2259 4.81917 11.0522 4.64551 10.8388 4.64551H9.6775C9.46407 4.64551 9.29041 4.81917 9.29041 5.0326V6.19389C9.29041 6.40733 9.46407 6.58099 9.6775 6.58099ZM9.6775 5.0326H10.8388L10.839 6.19389C10.839 6.19389 10.839 6.19389 10.8388 6.19389H9.6775V5.0326Z" fill="black"/>
<path d="M6.19353 6.96777H5.03224C4.8188 6.96777 4.64514 7.14143 4.64514 7.35487V8.51616C4.64514 8.7296 4.8188 8.90326 5.03224 8.90326H6.19353C6.40696 8.90326 6.58063 8.7296 6.58063 8.51616V7.35487C6.58063 7.14143 6.40696 6.96777 6.19353 6.96777ZM6.19353 8.51616H5.03224V7.35487H6.19353L6.19377 8.51616C6.19377 8.51616 6.1937 8.51616 6.19353 8.51616Z" fill="black"/>
<path d="M3.87102 6.96777H2.70973C2.49629 6.96777 2.32263 7.14143 2.32263 7.35487V8.51616C2.32263 8.7296 2.49629 8.90326 2.70973 8.90326H3.87102C4.08445 8.90326 4.25812 8.7296 4.25812 8.51616V7.35487C4.25812 7.14143 4.08445 6.96777 3.87102 6.96777ZM3.87102 8.51616H2.70973V7.35487H3.87102L3.87126 8.51616C3.87126 8.51616 3.87119 8.51616 3.87102 8.51616Z" fill="black"/>
<path d="M6.19353 9.29004H5.03224C4.8188 9.29004 4.64514 9.4637 4.64514 9.67714V10.8384C4.64514 11.0519 4.8188 11.2255 5.03224 11.2255H6.19353C6.40696 11.2255 6.58063 11.0519 6.58063 10.8384V9.67714C6.58063 9.4637 6.40696 9.29004 6.19353 9.29004ZM6.19353 10.8384H5.03224V9.67714H6.19353L6.19377 10.8384C6.19377 10.8384 6.1937 10.8384 6.19353 10.8384Z" fill="black"/>
<path d="M3.87102 9.29004H2.70973C2.49629 9.29004 2.32263 9.4637 2.32263 9.67714V10.8384C2.32263 11.0519 2.49629 11.2255 2.70973 11.2255H3.87102C4.08445 11.2255 4.25812 11.0519 4.25812 10.8384V9.67714C4.25812 9.4637 4.08445 9.29004 3.87102 9.29004ZM3.87102 10.8384H2.70973V9.67714H3.87102L3.87126 10.8384C3.87126 10.8384 3.87119 10.8384 3.87102 10.8384Z" fill="black"/>
<path d="M8.90326 8.51616V7.35487C8.90326 7.14143 8.7296 6.96777 8.51616 6.96777H7.35487C7.14143 6.96777 6.96777 7.14143 6.96777 7.35487V8.51616C6.96777 8.7296 7.14143 8.90326 7.35487 8.90326H8.51616C8.7296 8.90326 8.90326 8.7296 8.90326 8.51616ZM7.35487 7.35487H8.51616L8.5164 8.51616C8.5164 8.51616 8.51633 8.51616 8.51616 8.51616H7.35487V7.35487Z" fill="black"/>
</svg>
