<svg width="17" height="18" viewBox="0 0 17 18" fill="none" xmlns="http://www.w3.org/2000/svg">
<path d="M8.58744 7.80747L8.58743 7.80733C8.51718 7.05799 8.1434 6.21813 7.58361 5.58829C6.95385 4.86533 6.20136 4.50887 5.46601 4.57999C4.82402 4.63948 4.16097 5.10099 3.68027 5.77979C3.19862 6.45993 2.89476 7.36506 2.97658 8.32356L2.97661 8.32383C2.9883 8.45244 3.01188 8.61332 3.06902 8.76367C3.12617 8.91408 3.21851 9.05805 3.37016 9.14652L3.37011 9.14661L3.37299 9.14805C3.47296 9.19803 3.59605 9.22251 3.69513 9.22251C3.96112 9.22251 4.24799 9.10197 4.56803 8.96481L4.56838 8.96466C4.93781 8.80304 5.36924 8.62183 5.82159 8.57659C6.24069 8.53468 6.66058 8.62887 7.05286 8.71686C7.08303 8.72363 7.11304 8.73036 7.14287 8.73699C7.38383 8.79436 7.61332 8.8475 7.81774 8.85639C8.0233 8.86533 8.21054 8.82992 8.36212 8.70361L8.36215 8.70365L8.36374 8.7022C8.50171 8.57677 8.56293 8.41474 8.58709 8.25471C8.61114 8.09537 8.59897 7.93434 8.58744 7.80747ZM7.28061 8.17835L7.28021 8.17826C7.27348 8.17676 7.26672 8.17526 7.25994 8.17375C6.84923 8.08244 6.34237 7.96974 5.7894 8.01582C5.25056 8.06072 4.77692 8.25618 4.39457 8.41397C4.37781 8.42089 4.36123 8.42773 4.34482 8.43449L4.3448 8.43445L4.3429 8.43532C4.19288 8.50456 4.03968 8.57257 3.91022 8.61478C3.84544 8.63591 3.78867 8.64987 3.74248 8.65475C3.69887 8.65935 3.67144 8.6551 3.6558 8.6476C3.64303 8.63545 3.62318 8.61631 3.60191 8.57164C3.57652 8.5183 3.54869 8.42682 3.53747 8.26962L3.53747 8.26962L3.5374 8.26882C3.48081 7.62366 3.67917 6.86149 4.04368 6.24637C4.40841 5.63089 4.932 5.17437 5.51921 5.1179H5.51927H5.51954H5.51981H5.52008H5.52035H5.52062H5.52089H5.52116H5.52143H5.5217H5.52197H5.52224H5.52251H5.52278H5.52305H5.52332H5.52359H5.52386H5.52413H5.5244H5.52467H5.52494H5.52521H5.52548H5.52575H5.52602H5.52629H5.52656H5.52683H5.5271H5.52737H5.52764H5.52791H5.52817H5.52844H5.52871H5.52898H5.52925H5.52952H5.52979H5.53006H5.53033H5.5306H5.53087H5.53113H5.5314H5.53167H5.53194H5.53221H5.53248H5.53275H5.53301H5.53328H5.53355H5.53382H5.53409H5.53436H5.53462H5.53489H5.53516H5.53543H5.53569H5.53596H5.53623H5.5365H5.53676H5.53703H5.5373H5.53757H5.53783H5.5381H5.53837H5.53864H5.5389H5.53917H5.53944H5.5397H5.53997H5.54023H5.5405H5.54077H5.54103H5.5413H5.54156H5.54183H5.5421H5.54236H5.54263H5.54289H5.54316H5.54342H5.54369H5.54395H5.54422H5.54448H5.54475H5.54501H5.54528H5.54554H5.54581H5.54607H5.54633H5.5466H5.54686H5.54713H5.54739H5.54765H5.54792H5.54818H5.54844H5.54871H5.54897H5.54923H5.54949H5.54976H5.55002H5.55028H5.55054H5.5508H5.55107H5.55133H5.55159H5.55185H5.55211H5.55237H5.55263H5.5529H5.55316H5.55342H5.55368H5.55394H5.5542H5.55446H5.55472H5.55498H5.55524H5.5555H5.55576H5.55602H5.55627H5.55653H5.55679H5.55705H5.55731H5.55757H5.55783H5.55808H5.55834H5.5586H5.55886H5.55911H5.55937H5.55963H5.55988H5.56014H5.5604H5.56065H5.56091H5.56117H5.56142H5.56168H5.56193H5.56219H5.56244H5.5627H5.56295H5.56321H5.56346H5.56372H5.56397H5.56422H5.56448H5.56473H5.56498H5.56524H5.56549H5.56574H5.56599H5.56625H5.5665H5.56675H5.567H5.56725H5.56751H5.56776H5.56801H5.56826H5.56851H5.56876H5.56901H5.56926H5.56951H5.56976H5.57001H5.57026H5.57051H5.57075H5.571H5.57125H5.5715H5.57175H5.57199H5.57224H5.57249H5.57274H5.57298H5.57323H5.57348H5.57372H5.57397H5.57421H5.57446H5.5747H5.57495H5.57519H5.57544H5.57568H5.57593H5.57617H5.57641H5.57666H5.5769H5.57714H5.57739H5.57763H5.57787H5.57811H5.57835H5.57859H5.57884H5.57908H5.57932H5.57956H5.5798H5.58004H5.58028H5.58052H5.58076H5.581H5.58123H5.58147H5.58171H5.58195H5.58219H5.58242H5.58266H5.5829H5.58313H5.58337H5.58361H5.58384H5.58408H5.58431H5.58455H5.58478H5.58502H5.58525H5.58549H5.58572H5.58595H5.58619H5.58642H5.58665H5.58688H5.58711H5.58735H5.58758H5.58781H5.58804H5.58827H5.5885H5.58873H5.58896H5.58919H5.58942H5.58965H5.58988H5.5901H5.59033H5.59056H5.59079H5.59101H5.59124H5.59147H5.59169H5.59192H5.59214H5.59237H5.59259H5.59282H5.59304H5.59327H5.59349H5.59371H5.59394H5.59416H5.59438H5.59461H5.59483H5.59505H5.59527H5.59549H5.59571H5.59593H5.59615H5.59637H5.59659H5.59681H5.59703H5.59725H5.59746H5.59768H5.5979H5.59812H5.59833H5.59855H5.59876H5.59898H5.5992H5.59941H5.59962H5.59984H5.60005H5.60027H5.60048H5.60069H5.60091H5.60112H5.60133H5.60154H5.60175H5.60196H5.60217H5.60238H5.60259H5.6028H5.60301H5.60322H5.60343H5.60364H5.60384H5.60405H5.60426H5.60447H5.60467H5.60488H5.60508H5.60529H5.60549H5.6057H5.6059H5.6061H5.60631H5.60651H5.60671H5.60692H5.60712H5.60732H5.60752H5.60772H5.60792H5.60812H5.60832H5.60852H5.60872H5.60892H5.60911H5.60931H5.60951H5.60971H5.6099H5.6101H5.61029H5.61049H5.61068H5.61088H5.61107H5.61127H5.61146H5.61165H5.61184H5.61204H5.61223H5.61242H5.61261H5.6128H5.61299H5.61318H5.61337H5.61356H5.61375H5.61393H5.61412H5.61431H5.6145H5.61468H5.61487H5.61505H5.61524H5.61542H5.61561H5.61579H5.61597H5.61616H5.61634H5.61652H5.6167H5.61688H5.61707H5.61725H5.61743H5.61761H5.61778H5.61796H5.61814H5.61832H5.6185H5.61867H5.61885H5.61903H5.6192H5.61938H5.61955H5.61973H5.6199H5.62007H5.62025H5.62042H5.62059H5.62076H5.62093H5.6211H5.62127H5.62144H5.62161H5.62178H5.62195H5.62212H5.62229H5.62245H5.62262H5.62279H5.62295H5.62312H5.62328H5.62344H5.62361H5.62377H5.62393H5.6241H5.62426H5.62442H5.62458H5.62474H5.6249H5.62506H5.62522H5.62538H5.62554H5.62569H5.62585H5.62601H5.62616H5.62632H5.62647H5.62663H5.62678H5.62694H5.62709H5.62724H5.6274H5.62755H5.6277H5.62785H5.628H5.62815H5.6283H5.62845H5.6286H5.62874H5.62889H5.62904H5.62918H5.62933H5.62947H5.62962H5.62976H5.62991H5.63005H5.63019H5.63033H5.63048H5.63062H5.63076H5.6309H5.63104H5.63118H5.63132H5.63145H5.63159H5.63173H5.63186H5.632H5.63214C6.14325 5.1179 6.68407 5.40718 7.16256 5.95403C7.64127 6.50113 7.9814 7.2291 8.02658 7.86167L8.02646 7.86168L8.02696 7.86518C8.0721 8.18122 8.00186 8.25401 7.99498 8.26089C7.98552 8.27035 7.96127 8.28109 7.91158 8.28417C7.86432 8.28711 7.80406 8.28259 7.73475 8.27269C7.61136 8.25506 7.4674 8.22166 7.33071 8.18995C7.31388 8.18605 7.29716 8.18217 7.28061 8.17835Z" fill="black" stroke="black" stroke-width="0.1"/>
<path d="M3.69734 4.50138L3.69734 4.50138L3.6971 4.50053C3.60207 4.16792 3.38875 3.83613 3.08059 3.59886C2.75086 3.3282 2.37811 3.17949 2.03501 3.15861C1.69153 3.1377 1.375 3.24516 1.16661 3.49032L1.1666 3.49031L1.16584 3.49124C0.749177 4.00595 0.954601 4.82054 1.61082 5.35976C1.91816 5.61972 2.27284 5.76164 2.60427 5.80898L2.6042 5.80949H2.61134H2.61161H2.61188H2.61215H2.61242H2.61269H2.61296H2.61323H2.6135H2.61377H2.61404H2.61431H2.61459H2.61486H2.61513H2.6154H2.61567H2.61594H2.61621H2.61648H2.61675H2.61702H2.61729H2.61756H2.61783H2.6181H2.61837H2.61864H2.61891H2.61918H2.61944H2.61971H2.61998H2.62025H2.62052H2.62079H2.62106H2.62133H2.6216H2.62187H2.62214H2.62241H2.62268H2.62295H2.62322H2.62349H2.62376H2.62403H2.62429H2.62456H2.62483H2.6251H2.62537H2.62564H2.62591H2.62618H2.62645H2.62671H2.62698H2.62725H2.62752H2.62779H2.62806H2.62832H2.62859H2.62886H2.62913H2.6294H2.62966H2.62993H2.6302H2.63047H2.63073H2.631H2.63127H2.63154H2.6318H2.63207H2.63234H2.63261H2.63287H2.63314H2.63341H2.63367H2.63394H2.63421H2.63447H2.63474H2.63501H2.63527H2.63554H2.6358H2.63607H2.63634H2.6366H2.63687H2.63713H2.6374H2.63766H2.63793H2.63819H2.63846H2.63872H2.63899H2.63925H2.63952H2.63978H2.64005H2.64031H2.64058H2.64084H2.6411H2.64137H2.64163H2.64189H2.64216H2.64242H2.64268H2.64295H2.64321H2.64347H2.64374H2.644H2.64426H2.64452H2.64479H2.64505H2.64531H2.64557H2.64583H2.64609H2.64636H2.64662H2.64688H2.64714H2.6474H2.64766H2.64792H2.64818H2.64844H2.6487H2.64896H2.64922H2.64948H2.64974H2.65H2.65026H2.65052H2.65078H2.65104H2.6513H2.65156H2.65181H2.65207H2.65233H2.65259H2.65285H2.6531H2.65336H2.65362H2.65388H2.65413H2.65439H2.65465H2.6549H2.65516H2.65541H2.65567H2.65593H2.65618H2.65644H2.65669H2.65695H2.6572H2.65746H2.65771H2.65797H2.65822H2.65847H2.65873H2.65898H2.65924H2.65949H2.65974H2.65999H2.66025H2.6605H2.66075H2.661H2.66126H2.66151H2.66176H2.66201H2.66226H2.66251H2.66276H2.66301H2.66326H2.66351H2.66376H2.66401H2.66426H2.66451H2.66476H2.66501H2.66526H2.66551H2.66576H2.666H2.66625H2.6665H2.66675H2.66699H2.66724H2.66749H2.66773H2.66798H2.66823H2.66847H2.66872H2.66896H2.66921H2.66945H2.6697H2.66994H2.67019H2.67043H2.67068H2.67092H2.67116H2.6714H2.67165H2.67189H2.67213H2.67237H2.67262H2.67286H2.6731H2.67334H2.67358H2.67382H2.67406H2.6743H2.67454H2.67478H2.67502H2.67526H2.6755H2.67574H2.67598H2.67622H2.67645H2.67669H2.67693H2.67717H2.6774H2.67764H2.67788H2.67811H2.67835H2.67858H2.67882H2.67905H2.67929H2.67952H2.67976H2.67999H2.68022H2.68046H2.68069H2.68092H2.68116H2.68139H2.68162H2.68185H2.68208H2.68231H2.68254H2.68278H2.68301H2.68324H2.68347H2.68369H2.68392H2.68415H2.68438H2.68461H2.68484H2.68506H2.68529H2.68552H2.68575H2.68597H2.6862H2.68642H2.68665H2.68687H2.6871H2.68732H2.68755H2.68777H2.688H2.68822H2.68844H2.68867H2.68889H2.68911H2.68933H2.68955H2.68977H2.69H2.69022H2.69044H2.69066H2.69088H2.69109H2.69131H2.69153H2.69175H2.69197H2.69219H2.6924H2.69262H2.69284H2.69305H2.69327H2.69349H2.6937H2.69392H2.69413H2.69434H2.69456H2.69477H2.69498H2.6952H2.69541H2.69562H2.69583H2.69605H2.69626H2.69647H2.69668H2.69689H2.6971H2.69731H2.69752H2.69773H2.69793H2.69814H2.69835H2.69856H2.69876H2.69897H2.69918H2.69938H2.69959H2.69979H2.7H2.7002H2.70041H2.70061H2.70081H2.70102H2.70122H2.70142H2.70162H2.70182H2.70202H2.70222H2.70243H2.70263H2.70282H2.70302H2.70322H2.70342H2.70362H2.70382H2.70401H2.70421H2.70441H2.7046H2.7048H2.70499H2.70519H2.70538H2.70558H2.70577H2.70596H2.70616H2.70635H2.70654H2.70673H2.70692H2.70711H2.7073H2.70749H2.70768H2.70787H2.70806H2.70825H2.70844H2.70863H2.70881H2.709H2.70919H2.70937H2.70956H2.70974H2.70993H2.71011H2.7103H2.71048H2.71066H2.71084H2.71103H2.71121H2.71139H2.71157H2.71175H2.71193H2.71211H2.71229H2.71247H2.71265H2.71282H2.713H2.71318H2.71335H2.71353H2.71371H2.71388H2.71406H2.71423H2.7144H2.71458H2.71475H2.71492H2.7151H2.71527H2.71544H2.71561H2.71578H2.71595H2.71612H2.71629H2.71645H2.71662H2.71679H2.71696H2.71712H2.71729H2.71746H2.71762H2.71779H2.71795H2.71811H2.71828H2.71844H2.7186H2.71876H2.71893H2.71909H2.71925H2.71941H2.71957H2.71973H2.71988H2.72004H2.7202H2.72036H2.72051H2.72067H2.72082H2.72098H2.72113H2.72129H2.72144H2.7216H2.72175H2.7219H2.72205H2.7222H2.72235H2.7225H2.72265H2.7228H2.72295H2.7231H2.72325H2.7234H2.72354H2.72369H2.72383H2.72398H2.72412H2.72427H2.72441H2.72456H2.7247H2.72484H2.72498H2.72512H2.72526H2.7254H2.72554H2.72568H2.72582H2.72596H2.7261H2.72623H2.72637H2.72651H2.72664C3.06257 5.80949 3.33013 5.68894 3.52477 5.4701C3.74711 5.22306 3.79239 4.85783 3.69734 4.50138ZM1.97583 4.93809L1.97584 4.93808L1.97482 4.93721C1.7617 4.75775 1.61776 4.5461 1.55192 4.34857C1.48591 4.15056 1.50007 3.97373 1.59013 3.8531C1.6697 3.75409 1.79072 3.71106 1.94261 3.71106C2.18243 3.71106 2.47136 3.82077 2.71804 4.02259L2.71804 4.0226L2.71847 4.02294C2.94304 4.2026 3.09568 4.42375 3.1388 4.63937L3.13842 4.63945L3.1404 4.64538C3.18642 4.78344 3.22274 4.96552 3.10375 5.10434C2.98308 5.24512 2.80134 5.24826 2.65999 5.24829C2.44055 5.22573 2.17491 5.11504 1.97583 4.93809Z" fill="black" stroke="black" stroke-width="0.1"/>
<path d="M4.66366 2.48572L4.61643 2.50215C4.70611 2.75998 4.72202 3.01552 4.67546 3.2182C4.62877 3.42141 4.52177 3.56411 4.37113 3.61433C4.18933 3.67492 4.02374 3.57475 3.93269 3.50646C3.75779 3.37528 3.60117 3.1536 3.48809 2.88263C3.39898 2.63688 3.37795 2.34887 3.44327 2.13113L3.44348 2.1312L3.44441 2.12657C3.4659 2.01909 3.55122 1.83312 3.73402 1.77219L3.73418 1.77267L3.74057 1.76947C3.77467 1.75242 3.80919 1.75169 3.85657 1.75169C3.98897 1.75169 4.13863 1.82363 4.27737 1.95683C4.41535 2.08929 4.53812 2.2784 4.61646 2.50224L4.66366 2.48572ZM4.66366 2.48572C4.50224 2.02453 4.15634 1.70169 3.85657 1.70169C3.81045 1.70169 3.76433 1.70169 3.71821 1.72475L3.39538 2.11677C3.3262 2.34736 3.34926 2.64714 3.4415 2.90079C3.55679 3.17751 3.71821 3.4081 3.90269 3.54646C3.99493 3.61564 4.1794 3.73094 4.38694 3.66176C4.73283 3.54646 4.84813 3.01609 4.66366 2.48572ZM3.57125 3.97717L3.57124 3.97718L3.57222 3.97794C3.78812 4.14586 4.00635 4.21907 4.24858 4.21907C4.347 4.21907 4.44428 4.19475 4.53453 4.17218L4.53742 4.17146L4.53749 4.1717L4.54223 4.17C5.15579 3.94911 5.40708 3.1509 5.12603 2.33115L5.12603 2.33115L5.12588 2.33072C4.98446 1.93004 4.74216 1.60967 4.4587 1.41274C4.17526 1.21582 3.84805 1.14103 3.54182 1.23891C3.22128 1.33766 3.00425 1.60814 2.90894 1.98853C2.81364 2.32282 2.83832 2.7017 2.95564 3.07712C3.07427 3.45673 3.31119 3.76439 3.57125 3.97717Z" fill="black" stroke="black" stroke-width="0.1"/>
<path d="M6.3397 4.01077L6.33962 4.01131H6.34703H6.3473H6.34757H6.34784H6.34811H6.34838H6.34865H6.34892H6.34919H6.34946H6.34973H6.35H6.35027H6.35054H6.35081H6.35108H6.35135H6.35162H6.35189H6.35216H6.35243H6.3527H6.35297H6.35324H6.35351H6.35378H6.35405H6.35432H6.35459H6.35486H6.35513H6.3554H6.35567H6.35594H6.35622H6.35649H6.35676H6.35703H6.3573H6.35757H6.35784H6.35811H6.35838H6.35865H6.35892H6.35919H6.35946H6.35973H6.36H6.36027H6.36054H6.36081H6.36108H6.36135H6.36162H6.36189H6.36216H6.36243H6.3627H6.36297H6.36324H6.36351H6.36378H6.36405H6.36432H6.36459H6.36486H6.36513H6.3654H6.36567H6.36594H6.36621H6.36648H6.36675H6.36702H6.36729H6.36756H6.36784H6.36811H6.36838H6.36865H6.36892H6.36919H6.36946H6.36973H6.37H6.37027H6.37054H6.37081H6.37108H6.37135H6.37162H6.37189H6.37216H6.37243H6.3727H6.37297H6.37324H6.37351H6.37378H6.37405H6.37432H6.37459H6.37486H6.37513H6.3754H6.37567H6.37594H6.37621H6.37648H6.37675H6.37702H6.37729H6.37756H6.37783H6.3781H6.37837H6.37864H6.37891H6.37918H6.37946H6.37973H6.38H6.38027H6.38054H6.38081H6.38108H6.38135H6.38162H6.38189H6.38216H6.38243H6.3827H6.38297H6.38324H6.38351H6.38378H6.38405H6.38432H6.38459H6.38486H6.38513H6.3854H6.38567H6.38594H6.38621H6.38648H6.38675H6.38702H6.38729H6.38756H6.38783H6.3881H6.38837H6.38864H6.38891H6.38918H6.38945H6.38972H6.38999H6.39026H6.39053H6.3908H6.39108H6.39135H6.39162H6.39189H6.39216H6.39243H6.3927H6.39297H6.39324H6.39351H6.39378H6.39405H6.39432H6.39459H6.39486H6.39513H6.3954H6.39567H6.39594H6.39621H6.39648H6.39675H6.39702H6.39729H6.39756H6.39783H6.3981H6.39837H6.39864H6.39891H6.39918H6.39945H6.39972H6.39999H6.40026H6.40053H6.4008H6.40107H6.40134H6.40161H6.40188H6.40215H6.40242H6.40269H6.40297H6.40324H6.40351H6.40378H6.40405H6.40432H6.40459H6.40486H6.40513H6.4054H6.40567H6.40594H6.40621H6.40648H6.40675H6.40702H6.40729H6.40756H6.40783H6.4081H6.40837H6.40864H6.40891H6.40918H6.40945H6.40972H6.40999H6.41026H6.41053H6.4108H6.41107H6.41134H6.41161H6.41188H6.41215H6.41242H6.41269H6.41296H6.41323H6.4135H6.41377H6.41404H6.41431H6.41459H6.41486H6.41513H6.4154H6.41567H6.41594H6.41621H6.41648H6.41675H6.41702H6.41729H6.41756H6.41783H6.4181H6.41837H6.41864H6.41891H6.41918H6.41945H6.41972H6.41999H6.42026H6.42053H6.4208H6.42107H6.42134H6.42161H6.42188H6.42215H6.42242H6.42269H6.42296H6.42323H6.4235H6.42377H6.42404H6.42431H6.42458H6.42485H6.42512H6.42539H6.42566H6.42593H6.42621H6.42648H6.42675H6.42702H6.42729H6.42756H6.42783H6.4281H6.42837H6.42864H6.42891H6.42918H6.42945H6.42972H6.42999H6.43026H6.43053H6.4308H6.43107H6.43134H6.43161H6.43188H6.43215H6.43242H6.43269H6.43296H6.43323H6.4335H6.43377H6.43404H6.43431H6.43458H6.43485H6.43512H6.43539H6.43566H6.43593H6.4362H6.43647H6.43674H6.43701H6.43728H6.43755H6.43783H6.4381H6.43837H6.43864H6.43891H6.43918H6.43945H6.43972H6.43999H6.44026H6.44053H6.4408H6.44107H6.44134H6.44161H6.44188H6.44215H6.44242H6.44269H6.44296H6.44323H6.4435H6.44377H6.44404H6.44431H6.44458H6.44485H6.44512H6.44539H6.44566H6.44593H6.4462H6.44647H6.44674H6.44701H6.44728H6.44755H6.44782H6.44809H6.44836H6.44863H6.4489H6.44917H6.44944H6.44972H6.44999H6.45026H6.45053H6.4508H6.45107H6.45134H6.45161H6.45188H6.45215H6.45242H6.45269H6.45296H6.45323H6.4535H6.45377H6.45404H6.45431H6.45458H6.45485H6.45512H6.45539H6.45566H6.45593H6.4562H6.45647H6.45674H6.45701H6.45728H6.45755H6.45782H6.45809H6.45836H6.45863H6.4589H6.45917H6.45944H6.45971H6.45998H6.46025H6.46052H6.46079H6.46106H6.46134H6.46161H6.46188H6.46215H6.46242H6.46269H6.46296H6.46323H6.4635H6.46377H6.46404H6.46431H6.46458H6.46485H6.46512H6.46539H6.46566H6.46593H6.4662H6.46647H6.46674H6.46701H6.46728H6.46755H6.46782H6.46809H6.46836H6.46863H6.4689H6.46917H6.46944H6.46971H6.46998H6.47025H6.47052H6.47079H6.47106H6.47133H6.4716H6.47187H6.47214H6.47241H6.47268H6.47295H6.47323H6.4735H6.47377H6.47404H6.47431H6.47458H6.47485H6.47512H6.47539H6.47566H6.47593H6.4762H6.47647H6.47674H6.47701H6.47728H6.47755H6.47782H6.47809H6.47836H6.47863H6.4789H6.47917H6.47944H6.47971H6.47998H6.48025H6.48052H6.48079H6.48106H6.48133H6.4816H6.48187H6.48214H6.48241H6.48268H6.48295H6.48322H6.48349H6.48376H6.48403H6.4843H6.48457H6.48485H6.48512H6.48539C7.07386 4.01131 7.59365 3.42798 7.71086 2.6544L7.71086 2.65441L7.71095 2.65379C7.76981 2.23002 7.70549 1.83305 7.54726 1.52853C7.3889 1.22377 7.13479 1.00934 6.81582 0.960264C6.49674 0.911175 6.18752 1.04083 5.94272 1.28563C5.69804 1.53031 5.51519 1.89188 5.44452 2.31575C5.37377 2.72862 5.43231 3.12601 5.5906 3.43364C5.74905 3.74157 6.00912 3.9618 6.3397 4.01077ZM5.98127 2.37842L5.98131 2.37842L5.98153 2.37667C6.01499 2.12019 6.11524 1.89852 6.24436 1.74193C6.3743 1.58435 6.52864 1.49782 6.66986 1.49782H6.67H6.67013H6.67027H6.6704H6.67054H6.67067H6.67081H6.67094H6.67108H6.67121H6.67135H6.67148H6.67162H6.67175H6.67189H6.67202H6.67216H6.67229H6.67243H6.67256H6.6727H6.67283H6.67297H6.6731H6.67324H6.67337H6.67351H6.67364H6.67378H6.67391H6.67405H6.67418H6.67431H6.67445H6.67458H6.67472H6.67485H6.67499H6.67512H6.67526H6.67539H6.67552H6.67566H6.67579H6.67593H6.67606H6.67619H6.67633H6.67646H6.6766H6.67673H6.67686H6.677H6.67713H6.67727H6.6774H6.67753H6.67767H6.6778H6.67793H6.67807H6.6782H6.67833H6.67846H6.6786H6.67873H6.67886H6.679H6.67913H6.67926H6.67939H6.67953H6.67966H6.67979H6.67992H6.68006H6.68019H6.68032H6.68045H6.68058H6.68072H6.68085H6.68098H6.68111H6.68124H6.68137H6.6815H6.68164H6.68177H6.6819H6.68203H6.68216H6.68229H6.68242H6.68255H6.68268H6.68281H6.68294H6.68307H6.6832H6.68333H6.68346H6.68359H6.68372H6.68385H6.68398H6.68411H6.68424H6.68437H6.6845H6.68463H6.68475H6.68488H6.68501H6.68514H6.68527H6.6854H6.68552H6.68565H6.68578H6.68591H6.68603H6.68616H6.68629H6.68642H6.68654H6.68667H6.6868H6.68692H6.68705H6.68718H6.6873H6.68743H6.68755H6.68768H6.68781H6.68793H6.68806H6.68818H6.68831H6.68843H6.68856H6.68868H6.68881H6.68893H6.68905H6.68918H6.6893H6.68943H6.68955H6.68967H6.6898H6.68992H6.69004H6.69017H6.69029H6.69041H6.69053H6.69065H6.69078H6.6909H6.69102H6.69114H6.69126H6.69138H6.69151H6.69163H6.69175H6.69187H6.69199H6.69211H6.69223H6.69235H6.69247H6.69259H6.69271H6.69282H6.69294H6.69306H6.69318H6.6933H6.69342H6.69354H6.69365H6.69377H6.69389H6.69401H6.69412H6.69424H6.69436H6.69447H6.69459H6.6947H6.69482H6.69494H6.69505H6.69517H6.69528H6.6954H6.69551H6.69563H6.69574H6.69585H6.69597H6.69608H6.69619H6.69631H6.69642H6.69653H6.69665H6.69676H6.69687H6.69698H6.69709H6.6972H6.69732H6.69743H6.69754H6.69765H6.69776H6.69787H6.69798H6.69809H6.6982H6.69831H6.69842H6.69852H6.69863H6.69874H6.69885H6.69896H6.69906H6.69917H6.69928H6.69938H6.69949H6.6996H6.6997H6.69981H6.69991H6.70002H6.70013H6.70023H6.70033H6.70044H6.70054H6.70065H6.70075H6.70085H6.70096H6.70106H6.70116H6.70126H6.70137H6.70147H6.70157H6.70167H6.70177H6.70187H6.70197H6.70207H6.70217H6.70227H6.70237H6.70247H6.70257H6.70267H6.70277H6.70286H6.70296H6.70306H6.70316H6.70325H6.70335H6.70345H6.70354H6.70364H6.70373H6.70383H6.70392H6.70402H6.70411H6.70421H6.7043H6.70439H6.70449H6.70458H6.70467H6.70476H6.70486H6.70495H6.70504H6.70513H6.70522H6.70531H6.7054H6.70549H6.70558H6.70567H6.70576H6.70585H6.70593H6.70602H6.70611H6.7062H6.70628H6.70637H6.70646H6.70654H6.70663H6.70672H6.7068H6.70688H6.70697H6.70705H6.70714H6.70722H6.7073H6.70739H6.70747H6.70755H6.70763H6.70771H6.7078H6.70788H6.70796H6.70804H6.70812H6.7082H6.70828H6.70835H6.70843H6.70851H6.70859H6.70867H6.70874H6.70882H6.7089H6.70897H6.70905H6.70912H6.7092H6.70927H6.70935H6.70942H6.7095H6.70957H6.70964H6.70971H6.70979H6.70986H6.70993H6.71H6.71007H6.71014H6.71021H6.71028H6.71035H6.71042H6.71049H6.71056H6.71062H6.71069H6.71076H6.71082H6.71089H6.71096H6.71102H6.71109H6.71115H6.71122H6.71128H6.71134H6.71141H6.71147H6.71153H6.71159H6.71166H6.71172H6.71178H6.71184H6.7119H6.71196H6.71202H6.71208H6.71214H6.71219H6.71225H6.71231H6.71237H6.71242H6.71248H6.71253H6.71255C6.85957 1.51888 6.98548 1.63861 7.0678 1.8307C7.15013 2.0228 7.18421 2.27844 7.15075 2.54746C7.10576 2.81634 6.99953 3.04936 6.86515 3.20843C6.72994 3.36847 6.57242 3.44745 6.42282 3.4275L6.42283 3.42739L6.41953 3.42717C6.27346 3.41743 6.1415 3.29923 6.0556 3.10251C5.9705 2.90759 5.93658 2.64656 5.98127 2.37842Z" fill="black" stroke="black" stroke-width="0.1"/>
<path d="M7.55876 5.10491L7.55875 5.10492L7.55967 5.1057C7.73094 5.25251 7.95032 5.32528 8.1687 5.32528C8.28896 5.32528 8.40834 5.3014 8.52202 5.27867L8.5244 5.27819L8.52443 5.27835L8.52833 5.27724C8.86083 5.18223 9.19252 4.96902 9.42978 4.66102C9.68941 4.35382 9.83117 3.99939 9.87849 3.66818L9.87865 3.6682L9.87889 3.66422C9.90257 3.28539 9.80802 2.96776 9.53873 2.74689C9.29175 2.52523 8.95009 2.48031 8.57165 2.57492L8.57164 2.57489L8.57004 2.57535C8.2372 2.67044 7.90518 2.88399 7.66788 3.19249C7.43332 3.49741 7.26748 3.85117 7.21988 4.18441L7.21972 4.18438L7.21947 4.18836C7.19561 4.57017 7.31516 4.88566 7.55876 5.10491ZM8.09077 3.55597L8.09082 3.55601L8.09245 3.55398C8.27211 3.3294 8.49325 3.17677 8.70888 3.13364L8.70923 3.13544L8.72143 3.12934C8.73511 3.1225 8.76116 3.11713 8.79803 3.11429C8.83325 3.11158 8.87166 3.11156 8.90661 3.11156C8.99141 3.11156 9.09433 3.13286 9.17508 3.19282C9.31465 3.3135 9.31777 3.49458 9.3178 3.63552C9.29523 3.85496 9.18455 4.1206 9.00759 4.31968L9.00754 4.31963L9.00592 4.32166C8.82626 4.54624 8.60511 4.69887 8.38949 4.742C8.33157 4.75358 8.2503 4.76967 8.1645 4.76699C8.07906 4.76432 7.99364 4.74312 7.92452 4.68389C7.85468 4.62402 7.81825 4.54302 7.79952 4.46006C7.78098 4.37799 7.78058 4.29781 7.78057 4.24012C7.80313 4.02068 7.91382 3.75504 8.09077 3.55597Z" fill="black" stroke="black" stroke-width="0.1"/>
<path d="M9.33468 13.1223L9.33461 13.1224C8.75194 13.7284 8.33166 14.5443 8.21448 15.2933C8.19109 15.4221 8.17298 15.583 8.19106 15.7397C8.20913 15.8963 8.26397 16.0533 8.39078 16.168C8.53046 16.3071 8.7182 16.3546 8.92604 16.3576C9.13352 16.3605 9.36881 16.3191 9.61004 16.2732C10.0253 16.204 10.4791 16.1364 10.9313 16.2042C11.3834 16.2721 11.7916 16.4757 12.1616 16.6607C12.323 16.7415 12.4808 16.8175 12.6305 16.8733C12.7801 16.929 12.9248 16.9658 13.0602 16.9658C13.1611 16.9658 13.2609 16.9405 13.3593 16.8913C13.512 16.8149 13.6108 16.6765 13.674 16.529C13.737 16.382 13.7666 16.2215 13.7786 16.0918C13.8952 15.3422 13.7311 14.456 13.3352 13.6876L13.3353 13.6876L13.3342 13.6857C12.8682 12.8702 12.2345 12.3499 11.5001 12.2314C10.7641 12.1127 9.98766 12.446 9.33468 13.1223ZM13.2183 16.0322L13.2182 16.0329C13.1956 16.2023 13.1622 16.2937 13.1346 16.344C13.1137 16.3819 13.0974 16.396 13.0832 16.4081C13.0811 16.41 13.079 16.4118 13.0769 16.4136C13.0633 16.4198 13.0377 16.4228 12.9939 16.4145C12.9477 16.4057 12.8909 16.3863 12.8256 16.3594C12.7434 16.3254 12.6535 16.282 12.5603 16.2369C12.5045 16.2099 12.4474 16.1823 12.3901 16.1558C12.021 15.9714 11.5313 15.7379 10.9934 15.6443L10.9934 15.6443L10.9919 15.6441C10.8269 15.6205 10.6856 15.6205 10.5477 15.6205H10.5467C10.228 15.6205 9.90913 15.6715 9.6377 15.7149C9.59086 15.7224 9.54543 15.7297 9.50165 15.7364C9.45636 15.7429 9.41106 15.7497 9.36632 15.7565C9.24946 15.7741 9.13649 15.7912 9.0379 15.7994C8.96993 15.8051 8.91175 15.8062 8.86613 15.801C8.8187 15.7956 8.79411 15.7843 8.7834 15.7735L8.78337 15.7735C8.77764 15.7678 8.70632 15.6965 8.77387 15.3812L8.77406 15.3813L8.77461 15.3769C8.85374 14.7325 9.22232 14.0389 9.72059 13.5292C10.2197 13.0187 10.8385 12.7028 11.415 12.7913C11.9479 12.8803 12.4669 13.3043 12.8313 13.9871C13.1504 14.6255 13.3087 15.422 13.2183 16.0322Z" fill="black" stroke="black" stroke-width="0.1"/>
<path d="M9.41111 10.7525L9.41112 10.7525L9.41045 10.7516C9.15165 10.4105 8.82646 10.1729 8.49798 10.0684C8.169 9.96368 7.83466 9.99231 7.56562 10.188C7.29491 10.3849 7.17607 10.7026 7.17607 11.0816H7.17596L7.17618 11.0849C7.19984 11.4397 7.3182 11.7953 7.5554 12.1037C7.79073 12.4096 8.09769 12.6465 8.43054 12.7656C8.55265 12.8143 8.69715 12.838 8.84025 12.838C9.05408 12.838 9.25133 12.7907 9.40178 12.6657C9.65836 12.4698 9.78381 12.1597 9.78381 11.8166C9.78381 11.4734 9.65862 11.0943 9.41111 10.7525ZM8.93792 11.0876L8.93791 11.0876L8.93835 11.0882C9.09482 11.3006 9.18322 11.5397 9.19971 11.7485C9.21629 11.9585 9.16012 12.1279 9.04131 12.2173C8.97249 12.2663 8.88653 12.2826 8.79989 12.2826C8.71592 12.2826 8.63635 12.2673 8.57884 12.2559C8.38121 12.1667 8.16006 11.9894 8.00494 11.7678C7.84662 11.5416 7.73727 11.2749 7.73727 11.0586C7.73727 11.0037 7.74281 10.9225 7.76686 10.8423C7.79088 10.7623 7.83203 10.6875 7.90015 10.6385C7.95923 10.5994 8.0409 10.5782 8.1254 10.5782C8.38067 10.5782 8.71314 10.7729 8.93792 11.0876Z" fill="black" stroke="black" stroke-width="0.1"/>
<path d="M10.685 11.6393V11.6396L10.6906 11.639C11.3524 11.5655 11.7737 10.837 11.6802 9.99336C11.6447 9.56901 11.4854 9.19545 11.2526 8.93579C11.0196 8.67583 10.7105 8.52818 10.3797 8.56493C9.71789 8.63847 9.29654 9.36705 9.39006 10.2107C9.42555 10.6117 9.57313 10.9673 9.78773 11.2236C10.0023 11.48 10.2864 11.6393 10.5928 11.6393H10.5929H10.5931H10.5932H10.5933H10.5935H10.5936H10.5937H10.5939H10.594H10.5941H10.5943H10.5944H10.5946H10.5947H10.5948H10.595H10.5951H10.5952H10.5954H10.5955H10.5956H10.5958H10.5959H10.596H10.5962H10.5963H10.5964H10.5966H10.5967H10.5969H10.597H10.5971H10.5973H10.5974H10.5975H10.5977H10.5978H10.5979H10.5981H10.5982H10.5983H10.5985H10.5986H10.5988H10.5989H10.599H10.5992H10.5993H10.5994H10.5996H10.5997H10.5998H10.6H10.6001H10.6003H10.6004H10.6005H10.6007H10.6008H10.6009H10.6011H10.6012H10.6014H10.6015H10.6016H10.6018H10.6019H10.602H10.6022H10.6023H10.6024H10.6026H10.6027H10.6029H10.603H10.6031H10.6033H10.6034H10.6036H10.6037H10.6038H10.604H10.6041H10.6042H10.6044H10.6045H10.6047H10.6048H10.6049H10.6051H10.6052H10.6054H10.6055H10.6056H10.6058H10.6059H10.6061H10.6062H10.6063H10.6065H10.6066H10.6068H10.6069H10.607H10.6072H10.6073H10.6075H10.6076H10.6077H10.6079H10.608H10.6082H10.6083H10.6085H10.6086H10.6087H10.6089H10.609H10.6092H10.6093H10.6094H10.6096H10.6097H10.6099H10.61H10.6102H10.6103H10.6104H10.6106H10.6107H10.6109H10.611H10.6112H10.6113H10.6115H10.6116H10.6117H10.6119H10.612H10.6122H10.6123H10.6125H10.6126H10.6128H10.6129H10.6131H10.6132H10.6133H10.6135H10.6136H10.6138H10.6139H10.6141H10.6142H10.6144H10.6145H10.6147H10.6148H10.615H10.6151H10.6153H10.6154H10.6156H10.6157H10.6159H10.616H10.6162H10.6163H10.6165H10.6166H10.6168H10.6169H10.6171H10.6172H10.6174H10.6175H10.6177H10.6178H10.618H10.6181H10.6183H10.6184H10.6186H10.6187H10.6189H10.619H10.6192H10.6193H10.6195H10.6196H10.6198H10.62H10.6201H10.6203H10.6204H10.6206H10.6207H10.6209H10.621H10.6212H10.6213H10.6215H10.6217H10.6218H10.622H10.6221H10.6223H10.6224H10.6226H10.6228H10.6229H10.6231H10.6232H10.6234H10.6236H10.6237H10.6239H10.624H10.6242H10.6243H10.6245H10.6247H10.6248H10.625H10.6252H10.6253H10.6255H10.6256H10.6258H10.626H10.6261H10.6263H10.6264H10.6266H10.6268H10.6269H10.6271H10.6273H10.6274H10.6276H10.6278H10.6279H10.6281H10.6283H10.6284H10.6286H10.6288H10.6289H10.6291H10.6293H10.6294H10.6296H10.6298H10.6299H10.6301H10.6303H10.6304H10.6306H10.6308H10.6309H10.6311H10.6313H10.6315H10.6316H10.6318H10.632H10.6321H10.6323H10.6325H10.6327H10.6328H10.633H10.6332H10.6334H10.6335H10.6337H10.6339H10.634H10.6342H10.6344H10.6346H10.6347H10.6349H10.6351H10.6353H10.6355H10.6356H10.6358H10.636H10.6362H10.6363H10.6365H10.6367H10.6369H10.6371H10.6372H10.6374H10.6376H10.6378H10.638H10.6381H10.6383H10.6385H10.6387H10.6389H10.6391H10.6392H10.6394H10.6396H10.6398H10.64H10.6402H10.6404H10.6405H10.6407H10.6409H10.6411H10.6413H10.6415H10.6417H10.6418H10.642H10.6422H10.6424H10.6426H10.6428H10.643H10.6432H10.6434H10.6436H10.6437H10.6439H10.6441H10.6443H10.6445H10.6447H10.6449H10.6451H10.6453H10.6455H10.6457H10.6459H10.6461H10.6463H10.6465H10.6467H10.6469H10.6471H10.6473H10.6475H10.6476H10.6478H10.648H10.6482H10.6484H10.6486H10.6488H10.649H10.6492H10.6495H10.6497H10.6499H10.6501H10.6503H10.6505H10.6507H10.6509H10.6511H10.6513H10.6515H10.6517H10.6519H10.6521H10.6523H10.6525H10.6527H10.6529H10.6531H10.6534H10.6536H10.6538H10.654H10.6542H10.6544H10.6546H10.6548H10.655H10.6553H10.6555H10.6557H10.6559H10.6561H10.6563H10.6565H10.6568H10.657H10.6572H10.6574H10.6576H10.6578H10.6581H10.6583H10.6585H10.6587H10.6589H10.6591H10.6594H10.6596H10.6598H10.66H10.6603H10.6605H10.6607H10.6609H10.6611H10.6614H10.6616H10.6618H10.662H10.6623H10.6625H10.6627H10.663H10.6632H10.6634H10.6636H10.6639H10.6641H10.6643H10.6646H10.6648H10.665H10.6652H10.6655H10.6657H10.6659H10.6662H10.6664H10.6666H10.6669H10.6671H10.6674H10.6676H10.6678H10.6681H10.6683H10.6685H10.6688H10.669H10.6693H10.6695H10.6697H10.67H10.6702H10.6705H10.6707H10.6709H10.6712H10.6714H10.6717H10.6719H10.6722H10.6724H10.6727H10.6729H10.6731H10.6734H10.6736H10.6739H10.6741H10.6744H10.6746H10.6749H10.6751H10.6754H10.6756H10.6759H10.6761H10.6764H10.6766H10.6769H10.6772H10.6774H10.6777H10.6779H10.6782H10.6784H10.6787H10.679H10.6792H10.6795H10.6797H10.68H10.6803H10.6805H10.6808H10.681H10.6813H10.6816H10.6818H10.6821H10.6824H10.6826H10.6829H10.6832H10.6834H10.6837H10.684H10.6842H10.6845H10.6848H10.685ZM10.0643 9.4404C10.1554 9.24999 10.2866 9.13634 10.4331 9.12582H10.4332H10.4333H10.4335H10.4336H10.4337H10.4339H10.434H10.4341H10.4342H10.4343H10.4345H10.4346H10.4347H10.4348H10.435H10.4351H10.4352H10.4353H10.4354H10.4356H10.4357H10.4358H10.4359H10.436H10.4361H10.4363H10.4364H10.4365H10.4366H10.4367H10.4368H10.437H10.4371H10.4372H10.4373H10.4374H10.4375H10.4376H10.4377H10.4378H10.438H10.4381H10.4382H10.4383H10.4384H10.4385H10.4386H10.4387H10.4388H10.4389H10.439H10.4391H10.4392H10.4393H10.4395H10.4396H10.4397H10.4398H10.4399H10.44H10.4401H10.4402H10.4403H10.4404H10.4405H10.4406H10.4407H10.4408H10.4409H10.441H10.4411H10.4412H10.4413H10.4414H10.4415H10.4416H10.4417H10.4417H10.4418H10.4419H10.442H10.4421H10.4422H10.4423H10.4424H10.4425H10.4426H10.4427H10.4428H10.4429H10.443H10.4431H10.4431H10.4432H10.4433H10.4434H10.4435H10.4436H10.4437H10.4438H10.4439H10.4439H10.444H10.4441H10.4442H10.4443H10.4444H10.4445H10.4446H10.4446H10.4447H10.4448H10.4449H10.445H10.4451H10.4452H10.4452H10.4453H10.4454H10.4455H10.4456H10.4457H10.4457H10.4458H10.4459H10.446H10.4461H10.4461H10.4462H10.4463H10.4464H10.4465H10.4465H10.4466H10.4467H10.4468H10.4469H10.4469H10.447H10.4471H10.4472H10.4473H10.4473H10.4474H10.4475H10.4476H10.4476H10.4477H10.4478H10.4479H10.448H10.448H10.4481H10.4482H10.4483H10.4483H10.4484H10.4485H10.4486H10.4486H10.4487H10.4488H10.4489H10.4489H10.449H10.4491H10.4492H10.4492H10.4493H10.4494H10.4494H10.4495H10.4496H10.4497H10.4497H10.4498H10.4499H10.45H10.45H10.4501H10.4502H10.4502H10.4503H10.4504H10.4505H10.4505H10.4506H10.4507H10.4507H10.4508H10.4509H10.4509H10.451H10.4511H10.4512H10.4512H10.4513H10.4514H10.4514H10.4515H10.4516H10.4516H10.4517H10.4518H10.4519H10.4519H10.452H10.4521H10.4521H10.4522H10.4523H10.4523H10.4524H10.4525H10.4525H10.4526H10.4527H10.4527H10.4528H10.4529H10.4529H10.453H10.4531H10.4532H10.4532H10.4533H10.4534H10.4534H10.4535H10.4536H10.4536H10.4537H10.4538H10.4538H10.4539H10.454H10.454H10.4541H10.4542H10.4542H10.4543H10.4544H10.4544H10.4545H10.4546H10.4546H10.4547H10.4548H10.4548H10.4549H10.455H10.455H10.4551H10.4552H10.4552H10.4553H10.4554H10.4555H10.4555H10.4556H10.4557H10.4557H10.4558H10.4559H10.4559H10.456H10.4561H10.4561H10.4562H10.4563H10.4563H10.4564H10.4565H10.4565H10.4566H10.4567H10.4567H10.4568H10.4569H10.457H10.457H10.4571H10.4572H10.4572H10.4573H10.4574H10.4574H10.4575H10.4576H10.4576H10.4577H10.4578H10.4579H10.4579H10.458H10.4581H10.4581H10.4582H10.4583H10.4584H10.4584H10.4585H10.4586H10.4586H10.4587H10.4588H10.4589H10.4589H10.459H10.4591H10.4591H10.4592H10.4593H10.4594H10.4594H10.4595H10.4596H10.4596H10.4597H10.4598H10.4599H10.4599H10.46H10.4601H10.4602H10.4602H10.4603H10.4604H10.4605H10.4605H10.4606H10.4607H10.4608H10.4608H10.4609H10.461H10.4611H10.4611H10.4612H10.4613H10.4614H10.4615H10.4615H10.4616H10.4617H10.4618H10.4618H10.4619H10.462H10.4621H10.4622H10.4622H10.4623H10.4624H10.4625H10.4626H10.4626H10.4627H10.4628H10.4629H10.463H10.4631H10.4631H10.4632H10.4633H10.4634H10.4635H10.4636H10.4636H10.4637H10.4638H10.4639H10.464H10.4641H10.4641H10.4642H10.4643H10.4644H10.4645H10.4646H10.4647H10.4648H10.4648H10.4649H10.465H10.4651H10.4652H10.4653H10.4654H10.4655H10.4655H10.4656H10.4657H10.4658H10.4659H10.466H10.4661H10.4662H10.4663H10.4664H10.4665H10.4666H10.4667H10.4667H10.4668H10.4669H10.467H10.4671H10.4672H10.4673H10.4674H10.4675H10.4676H10.4677H10.4678H10.4679H10.468H10.4681H10.4682H10.4683H10.4684H10.4685H10.4686H10.4687H10.4688H10.4689H10.469H10.4691H10.4692H10.4693H10.4694H10.4695H10.4696H10.4697H10.4698H10.4699H10.4701H10.4702H10.4703H10.4704H10.4705H10.4706H10.4707H10.4708H10.4709H10.471H10.4711H10.4712H10.4714H10.4715H10.4716H10.4717H10.4718H10.4719H10.472H10.4721H10.4723H10.4724H10.4725H10.4726H10.4727H10.4728H10.473H10.4731H10.4732H10.4733H10.4734H10.4736H10.4737H10.4738H10.4739H10.474H10.4742H10.4743H10.4744H10.4745H10.4746H10.4748H10.4749H10.475H10.4751H10.4753H10.4754H10.4755H10.4757H10.4758H10.4759H10.476H10.4762H10.4763H10.4764H10.4766H10.4767H10.4768H10.477H10.4771H10.4772H10.4774H10.4775C10.6161 9.12582 10.7643 9.22092 10.8866 9.39043C11.0078 9.55842 11.0971 9.79177 11.1195 10.0486C11.1419 10.3178 11.0967 10.5739 11.006 10.7635C10.9146 10.9546 10.7827 11.0684 10.6356 11.0782C10.4862 11.0882 10.3334 10.9987 10.2061 10.83C10.0797 10.6624 9.98454 10.4234 9.95075 10.1544C9.92851 9.88555 9.97368 9.62987 10.0643 9.4404Z" fill="black" stroke="black" stroke-width="0.1"/>
<path d="M13.4303 11.7711L13.4304 11.7712L13.4338 11.769C13.7201 11.5781 13.9559 11.2701 14.1201 10.9184L14.1201 10.9184L14.121 10.9163C14.2859 10.5157 14.3165 10.1126 14.2298 9.77785C14.1431 9.4428 13.938 9.1745 13.6321 9.05217C13.0185 8.80673 12.3039 9.25214 11.9762 10.0481L11.9762 10.0481L11.976 10.0485C11.8347 10.4019 11.7866 10.8041 11.8583 11.1383L11.8582 11.1383L11.8588 11.1407C11.9538 11.4969 12.1465 11.7665 12.4654 11.8892C12.5845 11.9369 12.6831 11.9619 12.8065 11.9619C13.0261 11.9619 13.2193 11.8883 13.4303 11.7711ZM12.5061 10.2492L12.5061 10.2492L12.5067 10.2479C12.5963 10.0351 12.7247 9.85702 12.8655 9.73276C13.007 9.60793 13.1571 9.54061 13.2907 9.54061C13.3349 9.54061 13.3741 9.54065 13.4343 9.56044C13.5735 9.62106 13.6699 9.76904 13.7055 9.97475C13.7412 10.1804 13.7141 10.4361 13.6133 10.694C13.5011 10.9633 13.3454 11.162 13.1477 11.2938L13.1476 11.2937L13.1454 11.2954C13.1042 11.3263 13.0351 11.3637 12.955 11.3851C12.875 11.4064 12.7883 11.4106 12.7087 11.3808C12.6321 11.3521 12.5763 11.2886 12.5328 11.2126C12.4986 11.1526 12.4748 11.0903 12.4544 11.0367C12.4489 11.0225 12.4438 11.0089 12.4387 10.9961C12.3741 10.7785 12.3956 10.4922 12.5061 10.2492Z" fill="black" stroke="black" stroke-width="0.1"/>
<path d="M13.9532 11.4106L13.9532 11.4106L13.9521 11.4114C13.6459 11.647 13.4088 11.9543 13.2898 12.2875L13.2898 12.2875L13.2895 12.2885C13.1706 12.6451 13.1922 12.9859 13.3887 13.2561C13.585 13.526 13.902 13.6456 14.2362 13.6456C14.5931 13.6456 14.9729 13.5267 15.3046 13.2661C15.6104 13.0308 15.8473 12.7239 15.9663 12.3912C16.1097 12.0319 16.0638 11.667 15.8667 11.4203C15.6708 11.1635 15.3606 11.0379 15.0174 11.0379C14.6741 11.0379 14.295 11.1631 13.9532 11.4106ZM15.4581 12.1935L15.4579 12.1934L15.4566 12.1977C15.3914 12.415 15.2153 12.6371 14.9916 12.7937L14.9916 12.7937L14.9906 12.7944C14.7782 12.9509 14.5391 13.0393 14.3303 13.0558C14.1203 13.0723 13.9509 13.0162 13.8615 12.8974C13.8125 12.8285 13.7962 12.7426 13.7962 12.6559C13.7962 12.5704 13.812 12.4895 13.8236 12.4317C13.8893 12.2151 14.0649 11.994 14.288 11.8379L14.288 11.8379L14.2887 11.8374C14.535 11.6583 14.8016 11.5703 15.0433 11.5703C15.215 11.5703 15.3596 11.6342 15.4406 11.7337C15.5413 11.8973 15.5018 12.0841 15.4581 12.1935Z" fill="black" stroke="black" stroke-width="0.1"/>
</svg>
