<svg width="10" height="10" viewBox="0 0 10 10" fill="none" xmlns="http://www.w3.org/2000/svg">
<g clip-path="url(#clip0_631_1547)">
<path d="M9.29299 8.83393C9.29299 8.59714 9.10233 8.40506 8.86812 8.40506H8.85497V5.42922C8.85497 4.97123 8.48255 4.59771 8.02346 4.59771H5.5935V2.66904C5.5935 2.54668 5.52771 2.43218 5.42121 2.37168L4.85284 2.04417C4.74505 1.98225 4.61206 1.98096 4.50684 2.04282C4.40291 2.10332 4.33854 2.21775 4.33854 2.34275V4.599H1.90451C1.44672 4.599 1.07307 4.97123 1.07307 5.43051V6.03302C1.07178 6.04211 1.07178 6.05139 1.07178 6.06067C1.07178 6.06988 1.07307 6.07897 1.07307 6.08824V8.40764H1.06263C0.828353 8.40764 0.637695 8.59972 0.637695 8.83651V9.23908C0.637695 9.47588 0.828353 9.66802 1.06263 9.66802H8.8667C9.10091 9.66802 9.2917 9.47588 9.2917 9.23908V8.83393H9.29299ZM1.08634 9.21801V8.85229H8.84698V9.21801H1.08634ZM5.14621 3.11376L4.78448 2.90454V2.52033L5.14621 2.72812V3.11376ZM4.78577 3.20847L5.14749 3.41762V3.94378L4.78577 3.73457V3.20847ZM4.78577 4.03979L5.14749 4.249V4.599H4.78577V4.03979ZM1.90451 5.0463H8.02346C8.23525 5.0463 8.40761 5.21859 8.40761 5.43051V5.86982C8.24717 5.91595 8.10233 6.00938 7.99183 6.14224L7.75903 6.4251C7.68397 6.51576 7.57346 6.56576 7.4551 6.56318C7.33938 6.5606 7.23674 6.51067 7.16567 6.42233C7.16438 6.41975 7.1618 6.41717 7.16032 6.41453L6.8973 6.06988C6.74067 5.86595 6.50658 5.74617 6.25265 5.74095C5.99878 5.73567 5.75922 5.84617 5.59492 6.04488L5.283 6.4251C5.208 6.51576 5.09749 6.56576 4.97919 6.56318C4.8607 6.5606 4.75155 6.50661 4.68048 6.41453L4.42262 6.07117C4.42262 6.07117 4.42262 6.07117 4.42262 6.06988C4.42262 6.06988 4.42262 6.06988 4.42262 6.06853C4.26876 5.86724 4.02662 5.74488 3.77417 5.73966C3.52281 5.73438 3.28473 5.84488 3.12017 6.04359L2.78995 6.44482C2.71759 6.53283 2.60844 6.58302 2.49266 6.58302C2.49266 6.58302 2.49266 6.58302 2.49137 6.58302C2.37694 6.58302 2.26895 6.53154 2.19536 6.44089L1.94395 6.1356C1.83344 6.00139 1.68744 5.90802 1.52429 5.86202V5.42523C1.52043 5.21859 1.69279 5.0463 1.90451 5.0463ZM1.52043 6.35532C1.54807 6.3751 1.57301 6.39739 1.59536 6.42381L1.84665 6.7289C2.00587 6.92233 2.23873 7.03283 2.48744 7.03283H2.48873C2.73866 7.03283 2.97153 6.92362 3.12939 6.73296L3.45961 6.33032C3.53589 6.23818 3.6464 6.18567 3.76089 6.18818C3.87797 6.19095 3.99111 6.24746 4.06218 6.34089L4.31998 6.68425V6.68683C4.47398 6.88812 4.70948 7.00654 4.9647 7.01176H4.98177C5.23177 7.01176 5.46457 6.90268 5.62249 6.71183L5.93429 6.33161C6.00935 6.24095 6.12372 6.18696 6.23815 6.18947C6.35536 6.19224 6.46315 6.24746 6.5368 6.34217L6.79067 6.67497C6.79344 6.67897 6.79601 6.68425 6.79994 6.68818C6.95387 6.88947 7.18674 7.00654 7.4406 7.01176H7.45774C7.70774 7.01176 7.9406 6.90268 8.09846 6.71183L8.33132 6.42903C8.35239 6.40268 8.37739 6.38032 8.40239 6.36196V8.40764H1.52043V6.35532Z" fill="#969799"/>
<path d="M5.00281 1.89548C5.03966 1.89548 5.07781 1.8862 5.11202 1.86642C5.21988 1.80586 5.25796 1.66913 5.19759 1.56249C5.15145 1.48099 5.14095 1.37705 5.16982 1.28369C5.19353 1.20592 5.24089 1.14684 5.30281 1.1152C5.43567 1.0547 5.55674 0.97306 5.66054 0.873124C5.71189 0.977119 5.73161 1.09542 5.71453 1.21391C5.68683 1.41127 5.56196 1.57963 5.38038 1.66256C5.26846 1.71391 5.21853 1.84677 5.26988 1.95856C5.30809 2.04007 5.38824 2.08878 5.47381 2.08878C5.50538 2.08878 5.53689 2.08227 5.56724 2.06778C5.88824 1.92042 6.10925 1.62428 6.15796 1.27441C6.20661 0.923124 6.07761 0.577118 5.80919 0.348252C5.8079 0.346899 5.8079 0.346899 5.80661 0.345546C5.80403 0.342969 5.8001 0.340391 5.79739 0.339038C5.79482 0.336461 5.79082 0.33369 5.78824 0.332402C5.78696 0.332402 5.78696 0.331113 5.78554 0.329824C5.78425 0.328471 5.78161 0.327183 5.78032 0.327183C5.77645 0.324605 5.77239 0.323188 5.76846 0.320611C5.76589 0.319322 5.76324 0.318033 5.75918 0.316616C5.75532 0.315327 5.75139 0.312814 5.74739 0.311397C5.74353 0.310044 5.74089 0.308755 5.73683 0.307466C5.73296 0.306113 5.73032 0.304824 5.72645 0.303536C5.72246 0.302247 5.71846 0.300958 5.71453 0.300958C5.71189 0.299605 5.70796 0.299605 5.70538 0.298188C5.70145 0.296899 5.69739 0.296899 5.69346 0.295546C5.69089 0.295546 5.68683 0.294257 5.68425 0.294257C5.68032 0.294257 5.67639 0.294257 5.6711 0.292969C5.66853 0.292969 5.66453 0.292969 5.66189 0.292969C5.65796 0.292969 5.65403 0.292969 5.6501 0.292969C5.64739 0.292969 5.64346 0.292969 5.64089 0.294257C5.63689 0.294257 5.63302 0.295546 5.62909 0.295546C5.62504 0.295546 5.62246 0.296899 5.61853 0.296899C5.61447 0.298188 5.61196 0.298188 5.60796 0.299605C5.60403 0.300958 5.60139 0.300958 5.59746 0.302247C5.59346 0.303536 5.59089 0.304824 5.58818 0.304824C5.58431 0.306113 5.58167 0.307466 5.57761 0.308755C5.57504 0.310044 5.5711 0.311397 5.56853 0.312814C5.56453 0.314038 5.56196 0.315327 5.55802 0.318033C5.55545 0.319322 5.55139 0.321899 5.54875 0.323188C5.54617 0.324605 5.54224 0.327183 5.53947 0.328471C5.53689 0.331113 5.53296 0.332402 5.53038 0.335108C5.52768 0.33775 5.5251 0.339038 5.52239 0.34168C5.51859 0.344257 5.51582 0.346899 5.51324 0.349541C5.5106 0.352247 5.50802 0.353536 5.50674 0.356113C5.50397 0.358755 5.50004 0.36275 5.49746 0.365327C5.49617 0.366616 5.49488 0.367969 5.49353 0.369257C5.49224 0.370546 5.49224 0.370546 5.49089 0.371835C5.48824 0.374605 5.48567 0.378536 5.48296 0.381113C5.48038 0.38369 5.47768 0.387685 5.47639 0.390392C5.47639 0.39168 5.4751 0.39168 5.47381 0.392969C5.38567 0.52976 5.25938 0.637621 5.11067 0.704825C5.10931 0.706113 5.10802 0.706113 5.10674 0.707402C5.10545 0.708691 5.10416 0.708691 5.10145 0.710044C4.92787 0.796835 4.80016 0.952183 4.7396 1.14812C4.67523 1.35863 4.69887 1.58749 4.80551 1.77699C4.84752 1.85328 4.92387 1.89548 5.00281 1.89548Z" fill="#969799"/>
</g>
<defs>
<clipPath id="clip0_631_1547">
<rect width="10" height="10" fill="white"/>
</clipPath>
</defs>
</svg>
