<svg width="65" height="68" viewBox="0 0 65 68" fill="none" xmlns="http://www.w3.org/2000/svg">
<path d="M30.2293 51.4425V9.80187L19.6479 21.0184L16.4327 17.5619L32.5 0.525391L48.5719 17.5619L45.3566 21.0232L34.7707 9.80187V51.4425H30.2293ZM8.0493 67.9206C5.95724 67.9206 4.21184 67.1793 2.8131 65.6966C1.41436 64.2139 0.713477 62.3621 0.710449 60.1413V48.4771H5.25181V60.1413C5.25181 60.8827 5.54246 61.563 6.12376 62.1824C6.70505 62.8018 7.34538 63.1099 8.04475 63.1067H56.9552C57.6516 63.1067 58.2919 62.7986 58.8763 62.1824C59.4606 61.5662 59.7512 60.8859 59.7482 60.1413V48.4771H64.2896V60.1413C64.2896 62.3589 63.5902 64.2091 62.1914 65.6918C60.7927 67.1745 59.0458 67.9174 56.9507 67.9206H8.0493Z" fill="#CCCCCC"/>
</svg>
