<svg width="25" height="26" viewBox="0 0 25 26" fill="none" xmlns="http://www.w3.org/2000/svg">
<path d="M9.83328 26L9.31566 21.8227C8.85905 21.683 8.36574 21.4644 7.83573 21.1669C7.30477 20.8684 6.85341 20.5487 6.48164 20.2078L2.66672 21.8472L0 17.1528L3.2973 14.6409C3.2544 14.3809 3.21961 14.1122 3.19292 13.8349C3.16432 13.5576 3.15002 13.2884 3.15002 13.0274C3.15002 12.7848 3.16432 12.5296 3.19292 12.2619C3.21961 11.9942 3.2544 11.6928 3.2973 11.3577L0 8.84867L2.66672 4.20911L6.45304 5.82111C6.8801 5.46193 7.34243 5.13789 7.84002 4.849C8.33572 4.56011 8.81854 4.3367 9.28849 4.17878L9.83185 0H15.1682L15.6843 4.20622C16.2325 4.40074 16.7167 4.62367 17.1371 4.875C17.5575 5.12633 17.9907 5.44122 18.4369 5.81967L22.3333 4.20911L25 8.84722L21.594 11.4414C21.6722 11.74 21.716 12.0139 21.7256 12.2633C21.7351 12.5127 21.7399 12.7583 21.7399 13C21.7399 13.2244 21.7303 13.4608 21.7113 13.7092C21.6932 13.9586 21.6512 14.26 21.5854 14.6134L24.9371 17.1528L22.2704 21.8472L18.4369 20.1803C17.9917 20.5588 17.5437 20.8828 17.0928 21.1524C16.6419 21.4221 16.1724 21.6363 15.6843 21.7952L15.1682 26H9.83328ZM11.0701 24.5556H13.867L14.3946 20.644C15.1152 20.4514 15.7635 20.1871 16.3392 19.851C16.9169 19.5149 17.5041 19.0546 18.1008 18.4701L21.6684 20.0056L23.0897 17.55L19.9597 15.1753C20.0788 14.7641 20.158 14.3857 20.197 14.04C20.2352 13.6953 20.2542 13.3486 20.2542 13C20.2542 12.6341 20.2352 12.2874 20.197 11.96C20.1589 11.6326 20.0798 11.2729 19.9597 10.881L23.144 8.45L21.7227 5.99444L18.0737 7.54C17.6409 7.05948 17.0723 6.6093 16.3678 6.18944C15.6624 5.77056 14.9951 5.49274 14.366 5.356L13.9299 1.44444H11.0787L10.6326 5.32856C9.91192 5.48359 9.24941 5.73396 8.64505 6.07967C8.04164 6.42441 7.44109 6.89867 6.8434 7.50244L3.27728 5.99444L1.85598 8.45L4.95739 10.79C4.83823 11.1136 4.75482 11.465 4.70716 11.8444C4.6595 12.2239 4.63567 12.6187 4.63567 13.0289C4.63567 13.3948 4.6595 13.7583 4.70716 14.1194C4.75482 14.4806 4.82918 14.832 4.93022 15.1739L1.85598 17.55L3.27728 20.0056L6.81623 18.4889C7.3777 19.0609 7.96013 19.5197 8.56354 19.8654C9.1679 20.2111 9.84853 20.4803 10.6054 20.6729L11.0701 24.5556ZM12.4614 16.6111C13.4585 16.6111 14.3036 16.2611 14.9966 15.561C15.6896 14.8609 16.0361 14.0073 16.0361 13C16.0361 11.9927 15.6896 11.1391 14.9966 10.439C14.3036 9.73893 13.4585 9.38889 12.4614 9.38889C11.4586 9.38889 10.6121 9.73893 9.92193 10.439C9.23177 11.1391 8.88669 11.9927 8.88669 13C8.88669 14.0073 9.23177 14.8609 9.92193 15.561C10.6121 16.2611 11.4586 16.6111 12.4614 16.6111Z" fill="black"/>
</svg>
