<svg width="23" height="24" viewBox="0 0 23 24" fill="none" xmlns="http://www.w3.org/2000/svg">
<path d="M19.8069 13.7027H15.4083C14.8252 13.7021 14.2657 13.9328 13.8524 14.3441C13.4392 14.7554 13.2059 15.3139 13.2038 15.8969V20.2956C13.2035 20.5851 13.2604 20.8719 13.371 21.1395C13.4817 21.4071 13.6441 21.6502 13.8488 21.855C14.0536 22.0598 14.2967 22.2221 14.5643 22.3328C14.8319 22.4435 15.1187 22.5003 15.4083 22.5H19.8069C20.3898 22.4976 20.9479 22.2642 21.359 21.851C21.7701 21.4378 22.0006 20.8784 22 20.2956V15.8969C22.0003 15.6088 21.9438 15.3235 21.8337 15.0573C21.7236 14.7911 21.562 14.5492 21.3583 14.3455C21.1546 14.1418 20.9127 13.9803 20.6465 13.8702C20.3803 13.7601 20.095 13.7035 19.8069 13.7038M7.59173 13.7027H3.19308C2.6103 13.706 2.0525 13.9398 1.64158 14.3531C1.23065 14.7664 0.999992 15.3255 1 15.9083V20.3069C0.999703 20.595 1.05622 20.8803 1.16633 21.1465C1.27644 21.4127 1.43797 21.6546 1.64167 21.8583C1.84538 22.062 2.08726 22.2236 2.35347 22.3337C2.61968 22.4438 2.905 22.5003 3.19308 22.5H7.59173C8.1746 22.5006 8.73394 22.2701 9.14716 21.859C9.56037 21.4479 9.79376 20.8898 9.79616 20.3069V15.9083C9.79646 15.6187 9.73965 15.3319 9.62897 15.0643C9.51829 14.7967 9.35592 14.5536 9.15116 14.3488C8.9464 14.1441 8.70327 13.9817 8.43568 13.871C8.16809 13.7604 7.8813 13.7035 7.59173 13.7038M7.59173 1.5H3.19308C2.905 1.4997 2.61968 1.55622 2.35347 1.66633C2.08726 1.77644 1.84538 1.93797 1.64167 2.14167C1.43797 2.34538 1.27644 2.58726 1.16633 2.85347C1.05622 3.11968 0.999703 3.405 1 3.69308V8.09173C0.999395 8.6746 1.2299 9.23394 1.64098 9.64716C2.05207 10.0604 2.61021 10.2938 3.19308 10.2962H7.59173C7.8813 10.2965 8.16809 10.2396 8.43568 10.129C8.70327 10.0183 8.9464 9.85592 9.15116 9.65116C9.35592 9.4464 9.51829 9.20327 9.62897 8.93568C9.73965 8.66809 9.79646 8.3813 9.79616 8.09173V3.69308C9.79376 3.11021 9.56037 2.55207 9.14716 2.14098C8.73394 1.7299 8.1746 1.4994 7.59173 1.5ZM19.8069 1.5H15.4083C14.8254 1.4994 14.2661 1.7299 13.8528 2.14098C13.4396 2.55207 13.2062 3.11021 13.2038 3.69308V8.09173C13.2041 8.67629 13.4365 9.23682 13.8498 9.65017C14.2632 10.0635 14.8237 10.2959 15.4083 10.2962H19.8069C20.3898 10.2938 20.9479 10.0604 21.359 9.64716C21.7701 9.23394 22.0006 8.6746 22 8.09173V3.69308C22.0003 3.405 21.9438 3.11968 21.8337 2.85347C21.7236 2.58726 21.562 2.34538 21.3583 2.14167C21.1546 1.93797 20.9127 1.77644 20.6465 1.66633C20.3803 1.55622 20.095 1.4997 19.8069 1.5Z" stroke="white" stroke-width="1.8" stroke-linecap="round" stroke-linejoin="round"/>
</svg>
