<svg width="24" height="24" viewBox="0 0 24 24" fill="none" xmlns="http://www.w3.org/2000/svg">
<rect width="24" height="24" fill="#1E1E1E"/>
<g id="Admin">
<path d="M-3580 -1054C-3580 -1055.1 -3579.1 -1056 -3578 -1056H8880C8881.1 -1056 8882 -1055.1 8882 -1054V4821C8882 4822.1 8881.1 4823 8880 4823H-3578C-3579.1 4823 -3580 4822.1 -3580 4821V-1054Z" fill="#444444"/>
<path d="M-3578 -1055H8880V-1057H-3578V-1055ZM8881 -1054V4821H8883V-1054H8881ZM8880 4822H-3578V4824H8880V4822ZM-3579 4821V-1054H-3581V4821H-3579ZM-3578 4822C-3578.55 4822 -3579 4821.55 -3579 4821H-3581C-3581 4822.66 -3579.66 4824 -3578 4824V4822ZM8881 4821C8881 4821.55 8880.55 4822 8880 4822V4824C8881.66 4824 8883 4822.66 8883 4821H8881ZM8880 -1055C8880.55 -1055 8881 -1054.55 8881 -1054H8883C8883 -1055.66 8881.66 -1057 8880 -1057V-1055ZM-3578 -1057C-3579.66 -1057 -3581 -1055.66 -3581 -1054H-3579C-3579 -1054.55 -3578.55 -1055 -3578 -1055V-1057Z" fill="white" fill-opacity="0.1"/>
<g id="Dashboard for Hospital Admin" clip-path="url(#clip0_0_1)">
<rect width="1728" height="1149" transform="translate(-56 -447)" fill="#F5F7F9"/>
<g id="Admin_2">
<g id="Group 1556235513">
<rect id="Rectangle 24929" x="-57" y="-448" width="360" height="1205" fill="white" stroke="#E9EBED" stroke-width="2"/>
<g id="Frame 313">
<path id="Vector" d="M3.75 3.1L3.74988 3.1C2.99432 3.10091 2.26997 3.40145 1.73571 3.93571C1.20145 4.46997 0.900905 5.19432 0.9 5.94988V5.95L0.9 20.25L0.9 20.2501C0.900905 21.0057 1.20145 21.73 1.73571 22.2643C2.26997 22.7985 2.99432 23.0991 3.74988 23.1H3.75H20.25C21.0059 23.1 21.7308 22.7997 22.2653 22.2653C22.7997 21.7308 23.1 21.0059 23.1 20.25V5.95C23.1 5.19413 22.7997 4.46922 22.2653 3.93475C21.7308 3.40027 21.0059 3.1 20.25 3.1H17.05V1.55C17.05 1.37761 16.9815 1.21228 16.8596 1.09038L16.7889 1.16109L16.8596 1.09038C16.7377 0.968482 16.5724 0.9 16.4 0.9C16.2276 0.9 16.0623 0.968482 15.9404 1.09038C15.8185 1.21228 15.75 1.37761 15.75 1.55V3.1H8.25V1.55C8.25 1.37761 8.18152 1.21228 8.05962 1.09038C7.93772 0.968482 7.77239 0.9 7.6 0.9C7.42761 0.9 7.26228 0.968482 7.14038 1.09038C7.01848 1.21228 6.95 1.37761 6.95 1.55V3.1L3.75 3.1ZM21.8 20.25C21.8 20.6611 21.6367 21.0553 21.346 21.346C21.0553 21.6367 20.6611 21.8 20.25 21.8H3.75C3.33891 21.8 2.94467 21.6367 2.65398 21.346C2.3633 21.0553 2.2 20.6611 2.2 20.25V11H21.8V20.25ZM21.8 9.7H2.2V5.95C2.2 5.09434 2.89232 4.4 3.75 4.4H6.95V5.95C6.95 6.12239 7.01848 6.28772 7.14038 6.40962C7.26228 6.53152 7.42761 6.6 7.6 6.6C7.77239 6.6 7.93772 6.53152 8.05962 6.40962C8.18152 6.28772 8.25 6.12239 8.25 5.95V4.4H15.75V5.95C15.75 6.12239 15.8185 6.28772 15.9404 6.40962C16.0623 6.53152 16.2276 6.6 16.4 6.6C16.5724 6.6 16.7377 6.53152 16.8596 6.40962C16.9815 6.28772 17.05 6.12239 17.05 5.95V4.4H20.25C20.6611 4.4 21.0553 4.5633 21.346 4.85398C21.6367 5.14467 21.8 5.53891 21.8 5.95V9.7Z" fill="black" stroke="black" stroke-width="0.2"/>
</g>
</g>
</g>
</g>
</g>
<defs>
<clipPath id="clip0_0_1">
<rect width="1728" height="1149" fill="white" transform="translate(-56 -447)"/>
</clipPath>
</defs>
</svg>
