<svg xmlns="http://www.w3.org/2000/svg" width="27" height="30" viewBox="0 0 27 30" fill="none">
<path d="M13.5 13.4675C9.26727 13.4675 8.40953 7.0774 8.40953 7.0774C7.90608 3.75232 9.43508 0 13.4441 0C17.4717 0 19.0007 3.75232 18.4972 7.0774C18.4972 7.0774 17.7327 13.4675 13.5 13.4675ZM13.5 18.2415L18.5718 14.8607C23.0283 14.8607 27 19.1889 27 23.2755V27.9009C27 27.9009 20.1941 30 13.5 30C6.69406 30 0 27.9009 0 27.9009V23.2755C0 19.096 3.6174 14.9536 8.33495 14.9536L13.5 18.2415Z" fill="#0BD7EC"/>
</svg>